Bevan_ik.ufo
<glyph name="quotedbl" format="1">
  <advance width="1147"/>
  <unicode hex="0022"/>
  <outline>
    <contour>
      <point x="124" y="945" type="line"/>
      <point x="424" y="945" type="line"/>
      <point x="524" y="1624" type="line"/>
      <point x="44" y="1624" type="line"/>
    </contour>
    <contour>
      <point x="711" y="945" type="line"/>
      <point x="1011" y="945" type="line"/>
      <point x="1111" y="1624" type="line"/>
      <point x="631" y="1624" type="line"/>
    </contour>
  </outline>
</glyph>
<glyph name="numbersign" format="1">
  <advance width="1413"/>
  <unicode hex="0023"/>
  <outline>
    <contour>
      <point x="269" y="1246" type="line"/>
      <point x="206" y="947" type="line"/>
      <point x="342" y="947" type="line"/>
      <point x="262" y="585" type="line"/>
      <point x="122" y="585" type="line"/>
      <point x="59" y="286" type="line"/>
      <point x="195" y="286" type="line"/>
      <point x="132" y="0" type="line"/>
      <point x="445" y="0" type="line"/>
      <point x="510" y="286" type="line"/>
      <point x="674" y="286" type="line"/>
      <point x="611" y="0" type="line"/>
      <point x="924" y="0" type="line"/>
      <point x="989" y="286" type="line"/>
      <point x="1139" y="286" type="line"/>
      <point x="1202" y="585" type="line"/>
      <point x="1058" y="585" type="line"/>
      <point x="1141" y="947" type="line"/>
      <point x="1286" y="947" type="line"/>
      <point x="1349" y="1246" type="line"/>
      <point x="1209" y="1246" type="line"/>
      <point x="1296" y="1623" type="line"/>
      <point x="972" y="1623" type="line"/>
      <point x="888" y="1246" type="line"/>
      <point x="730" y="1246" type="line"/>
      <point x="817" y="1623" type="line"/>
      <point x="493" y="1623" type="line"/>
      <point x="409" y="1246" type="line"/>
    </contour>
    <contour>
      <point x="662" y="947" type="line"/>
      <point x="821" y="947" type="line"/>
      <point x="741" y="585" type="line"/>
      <point x="579" y="585" type="line"/>
    </contour>
  </outline>
</glyph>
<glyph name="dollar" format="1">
  <advance width="1358"/>
  <unicode hex="0024"/>
  <outline>
    <contour>
      <point x="95" y="66" type="line"/>
      <point x="290" y="66" type="line"/>
      <point x="334" y="128" type="line"/>
      <point x="446" y="76"/>
      <point x="585" y="48" type="qcurve"/>
      <point x="585" y="-166" type="line"/>
      <point x="816" y="-166" type="line"/>
      <point x="816" y="35" type="line"/>
      <point x="947" y="41"/>
      <point x="1169" y="172"/>
      <point x="1297" y="391"/>
      <point x="1294" y="518" type="qcurve"/>
      <point x="1292" y="603"/>
      <point x="1238" y="742"/>
      <point x="1153" y="840"/>
      <point x="1027" y="919"/>
      <point x="898" y="969"/>
      <point x="816" y="991" type="qcurve"/>
      <point x="816" y="1219" type="line"/>
      <point x="816" y="1225"/>
      <point x="827" y="1225" type="qcurve"/>
      <point x="837" y="1225"/>
      <point x="847" y="1214" type="qcurve"/>
      <point x="931" y="1136"/>
      <point x="954" y="1040" type="qcurve"/>
      <point x="964" y="1030" type="line"/>
      <point x="990" y="1028"/>
      <point x="1001" y="1028" type="qcurve"/>
      <point x="1008" y="1028"/>
      <point x="1057" y="1030"/>
      <point x="1058" y="1030" type="qcurve"/>
      <point x="1179" y="1034" type="line"/>
      <point x="1185" y="1040" type="line"/>
      <point x="1185" y="1466" type="line"/>
      <point x="1185" y="1467"/>
      <point x="1183" y="1469"/>
      <point x="1180" y="1472"/>
      <point x="1179" y="1473" type="qcurve"/>
      <point x="1178" y="1473"/>
      <point x="1164" y="1477"/>
      <point x="1162" y="1477" type="qcurve"/>
      <point x="1005" y="1477" type="line"/>
      <point x="978" y="1450" type="line"/>
      <point x="962" y="1434" type="line"/>
      <point x="870" y="1476"/>
      <point x="818" y="1494" type="qcurve"/>
      <point x="818" y="1704" type="line"/>
      <point x="591" y="1704" type="line"/>
      <point x="591" y="1513" type="line"/>
      <point x="364" y="1501"/>
      <point x="89" y="1260"/>
      <point x="89" y="1053" type="qcurve"/>
      <point x="89" y="989"/>
      <point x="117" y="880"/>
      <point x="162" y="799"/>
      <point x="238" y="729"/>
      <point x="314" y="680"/>
      <point x="425" y="634"/>
      <point x="519" y="604"/>
      <point x="585" y="586" type="qcurve"/>
      <point x="585" y="298" type="line"/>
      <point x="512" y="298"/>
      <point x="349" y="460"/>
      <point x="342" y="545" type="qcurve"/>
      <point x="95" y="545" type="line"/>
    </contour>
    <contour>
      <point x="916" y="399" type="qcurve"/>
      <point x="916" y="365"/>
      <point x="853" y="307"/>
      <point x="816" y="307" type="qcurve"/>
      <point x="816" y="527" type="line"/>
      <point x="871" y="519"/>
      <point x="921" y="441"/>
    </contour>
    <contour>
      <point x="475" y="1180" type="qcurve"/>
      <point x="475" y="1217"/>
      <point x="546" y="1272"/>
      <point x="589" y="1270" type="qcurve"/>
      <point x="589" y="1059" type="line"/>
      <point x="538" y="1070"/>
      <point x="475" y="1136"/>
    </contour>
  </outline>
</glyph>
<glyph name="one" format="1">
  <advance width="924"/>
  <unicode hex="0031"/>
  <outline>
    <contour>
      <point x="826" y="0" type="line"/>
      <point x="826" y="324" type="line"/>
      <point x="730" y="324" type="line"/>
      <point x="724" y="1375" type="line"/>
      <point x="62" y="1208" type="line"/>
      <point x="62" y="950" type="line"/>
      <point x="226" y="951" type="line"/>
      <point x="226" y="324" type="line"/>
      <point x="136" y="325" type="line"/>
      <point x="137" y="0" type="line"/>
    </contour>
  </outline>
</glyph>
<glyph name="two" format="1">
  <advance width="1330"/>
  <unicode hex="0032"/>
  <outline>
    <contour>
      <point x="1257" y="0" type="line"/>
      <point x="1257" y="471" type="line"/>
      <point x="1084" y="471" type="line"/>
      <point x="1084" y="426"/>
      <point x="1050" y="367"/>
      <point x="985" y="337"/>
      <point x="916" y="325"/>
      <point x="868" y="324" type="qcurve"/>
      <point x="707" y="324" type="line"/>
      <point x="794" y="389"/>
      <point x="876" y="452"/>
      <point x="1026" y="586"/>
      <point x="1067" y="639" type="qcurve"/>
      <point x="1173" y="775"/>
      <point x="1173" y="928" type="qcurve"/>
      <point x="1173" y="1034"/>
      <point x="1091" y="1207"/>
      <point x="948" y="1320"/>
      <point x="760" y="1383"/>
      <point x="651" y="1387" type="qcurve"/>
      <point x="570" y="1390"/>
      <point x="407" y="1357"/>
      <point x="259" y="1284"/>
      <point x="144" y="1180"/>
      <point x="76" y="1034"/>
      <point x="77" y="950" type="qcurve"/>
      <point x="74" y="844"/>
      <point x="149" y="654"/>
      <point x="225" y="586" type="qcurve"/>
      <point x="451" y="760" type="line"/>
      <point x="444" y="767"/>
      <point x="423" y="790"/>
      <point x="389" y="858"/>
      <point x="389" y="889" type="qcurve"/>
      <point x="389" y="951"/>
      <point x="459" y="1031"/>
      <point x="524" y="1031" type="qcurve"/>
      <point x="577" y="1031"/>
      <point x="657" y="936"/>
      <point x="661" y="859" type="qcurve"/>
      <point x="661" y="796"/>
      <point x="628" y="691"/>
      <point x="556" y="597"/>
      <point x="493" y="535"/>
      <point x="436" y="487" type="qcurve"/>
      <point x="307" y="377"/>
      <point x="114" y="303" type="qcurve"/>
      <point x="114" y="0" type="line"/>
    </contour>
  </outline>
</glyph>
<glyph name="three" format="1">
  <advance width="1274"/>
  <unicode hex="0033"/>
  <outline>
    <contour>
      <point x="83" y="424" type="qcurve"/>
      <point x="83" y="78" type="line"/>
      <point x="172" y="18"/>
      <point x="399" y="-18"/>
      <point x="557" y="-18" type="qcurve"/>
      <point x="857" y="-18"/>
      <point x="1206" y="238"/>
      <point x="1206" y="474" type="qcurve"/>
      <point x="1206" y="614"/>
      <point x="999" y="838"/>
      <point x="855" y="851" type="qcurve"/>
      <point x="1139" y="1085"/>
      <point x="1139" y="1088" type="qcurve"/>
      <point x="1139" y="1352" type="line"/>
      <point x="70" y="1352" type="line"/>
      <point x="70" y="899" type="line"/>
      <point x="264" y="898" type="line"/>
      <point x="285" y="978"/>
      <point x="300" y="1000" type="qcurve"/>
      <point x="329" y="1041"/>
      <point x="401" y="1041" type="qcurve"/>
      <point x="621" y="1041" type="line"/>
      <point x="621" y="1031" type="line"/>
      <point x="279" y="740" type="line"/>
      <point x="279" y="582" type="line"/>
      <point x="279" y="582"/>
      <point x="280" y="577" type="qcurve"/>
      <point x="286" y="572"/>
      <point x="300" y="572" type="qcurve"/>
      <point x="306" y="572"/>
      <point x="388" y="592"/>
      <point x="427" y="592" type="qcurve"/>
      <point x="472" y="592"/>
      <point x="554" y="576"/>
      <point x="630" y="540"/>
      <point x="676" y="471"/>
      <point x="676" y="424" type="qcurve"/>
      <point x="676" y="383"/>
      <point x="634" y="324"/>
      <point x="565" y="292"/>
      <point x="492" y="278"/>
      <point x="453" y="278" type="qcurve"/>
      <point x="264" y="278"/>
    </contour>
  </outline>
</glyph>
<glyph name="four" format="1">
  <advance width="1281"/>
  <unicode hex="0034"/>
  <outline>
    <contour>
      <point x="1000" y="420" type="line"/>
      <point x="1228" y="420" type="line"/>
      <point x="1228" y="677" type="line"/>
      <point x="1001" y="675" type="line"/>
      <point x="1001" y="1341" type="line"/>
      <point x="562" y="1342" type="line"/>
      <point x="11" y="688" type="line"/>
      <point x="11" y="419" type="line"/>
      <point x="544" y="420" type="line"/>
      <point x="544" y="288" type="line"/>
      <point x="417" y="288" type="line"/>
      <point x="417" y="0" type="line"/>
      <point x="1122" y="0" type="line"/>
      <point x="1122" y="288" type="line"/>
      <point x="1000" y="288" type="line"/>
    </contour>
    <contour>
      <point x="355" y="678" type="line"/>
      <point x="544" y="911" type="line"/>
      <point x="544" y="677" type="line"/>
    </contour>
  </outline>
</glyph>
<glyph name="five" format="1">
  <advance width="1167"/>
  <unicode hex="0035"/>
  <outline>
    <contour>
      <point x="113" y="75" type="line"/>
      <point x="159" y="30"/>
      <point x="379" y="-18"/>
      <point x="478" y="-18" type="qcurve"/>
      <point x="580" y="-18"/>
      <point x="763" y="20"/>
      <point x="922" y="104"/>
      <point x="1037" y="226"/>
      <point x="1103" y="404"/>
      <point x="1103" y="513" type="qcurve"/>
      <point x="1103" y="697"/>
      <point x="828" y="941"/>
      <point x="628" y="941" type="qcurve"/>
      <point x="572" y="941"/>
      <point x="467" y="932"/>
      <point x="442" y="928" type="qcurve"/>
      <point x="417" y="924" type="line"/>
      <point x="417" y="1063" type="line"/>
      <point x="1028" y="1063" type="line"/>
      <point x="1028" y="1360" type="line"/>
      <point x="112" y="1360" type="line"/>
      <point x="112" y="566" type="line"/>
      <point x="124" y="555" type="line"/>
      <point x="210" y="619"/>
      <point x="302" y="619" type="qcurve"/>
      <point x="361" y="619"/>
      <point x="471" y="587"/>
      <point x="554" y="505"/>
      <point x="554" y="446" type="qcurve"/>
      <point x="554" y="398"/>
      <point x="502" y="328"/>
      <point x="423" y="295"/>
      <point x="354" y="281"/>
      <point x="325" y="281" type="qcurve"/>
      <point x="291" y="281"/>
      <point x="185" y="314"/>
      <point x="149" y="330" type="qcurve"/>
      <point x="113" y="347" type="line"/>
    </contour>
  </outline>
</glyph>
<glyph name="question" format="1">
  <advance width="1311"/>
  <unicode hex="003F"/>
  <outline>
    <contour>
      <point x="350" y="539" type="line"/>
      <point x="697" y="539" type="line"/>
      <point x="697" y="726" type="line"/>
      <point x="758" y="747"/>
      <point x="851" y="784"/>
      <point x="974" y="843"/>
      <point x="1065" y="903"/>
      <point x="1160" y="989"/>
      <point x="1220" y="1082"/>
      <point x="1259" y="1204"/>
      <point x="1259" y="1272" type="qcurve"/>
      <point x="1259" y="1404"/>
      <point x="1103" y="1617"/>
      <point x="828" y="1737"/>
      <point x="659" y="1737" type="qcurve"/>
      <point x="402" y="1737"/>
      <point x="63" y="1445"/>
      <point x="49" y="1219" type="qcurve"/>
      <point x="521" y="1219" type="line"/>
      <point x="531" y="1381"/>
      <point x="651" y="1381" type="qcurve"/>
      <point x="681" y="1381"/>
      <point x="723" y="1350"/>
      <point x="740" y="1302"/>
      <point x="747" y="1265"/>
      <point x="747" y="1249" type="qcurve"/>
      <point x="747" y="1070"/>
      <point x="351" y="891" type="qcurve"/>
    </contour>
    <contour>
      <point x="530" y="-27" type="qcurve"/>
      <point x="411" y="-27"/>
      <point x="253" y="108"/>
      <point x="253" y="223" type="qcurve"/>
      <point x="253" y="336"/>
      <point x="408" y="468"/>
      <point x="530" y="468" type="qcurve"/>
      <point x="657" y="468"/>
      <point x="817" y="336"/>
      <point x="817" y="223" type="qcurve"/>
      <point x="817" y="108"/>
      <point x="652" y="-27"/>
    </contour>
  </outline>
</glyph>
<glyph name="at" format="1">
  <advance width="1899"/>
  <unicode hex="0040"/>
  <outline>
    <contour>
      <point x="1398" y="603" type="line"/>
      <point x="1398" y="676"/>
      <point x="1363" y="794"/>
      <point x="1312" y="867"/>
      <point x="1233" y="921"/>
      <point x="1167" y="947"/>
      <point x="1080" y="962"/>
      <point x="1034" y="964"/>
      <point x="1005" y="964" type="qcurve"/>
      <point x="894" y="964"/>
      <point x="725" y="903"/>
      <point x="628" y="796"/>
      <point x="580" y="665"/>
      <point x="580" y="588" type="qcurve"/>
      <point x="580" y="409"/>
      <point x="747" y="190"/>
      <point x="866" y="190" type="qcurve"/>
      <point x="923" y="190"/>
      <point x="1044" y="245"/>
      <point x="1079" y="294" type="qcurve"/>
      <point x="1117" y="204" type="line"/>
      <point x="1267" y="204" type="line"/>
      <point x="1418" y="204"/>
      <point x="1642" y="274"/>
      <point x="1777" y="403"/>
      <point x="1842" y="572"/>
      <point x="1842" y="677" type="qcurve"/>
      <point x="1842" y="821"/>
      <point x="1725" y="1074"/>
      <point x="1510" y="1263"/>
      <point x="1184" y="1372"/>
      <point x="987" y="1372" type="qcurve"/>
      <point x="776" y="1372"/>
      <point x="430" y="1244"/>
      <point x="204" y="1024"/>
      <point x="82" y="733"/>
      <point x="82" y="567" type="qcurve"/>
      <point x="82" y="409"/>
      <point x="210" y="132"/>
      <point x="447" y="-77"/>
      <point x="813" y="-198"/>
      <point x="1037" y="-198" type="qcurve"/>
      <point x="1142" y="-198"/>
      <point x="1252" y="-169" type="qcurve"/>
      <point x="1200" y="59" type="line"/>
      <point x="1124" y="37"/>
      <point x="1037" y="37" type="qcurve"/>
      <point x="881" y="37"/>
      <point x="634" y="120"/>
      <point x="478" y="265"/>
      <point x="397" y="456"/>
      <point x="397" y="567" type="qcurve"/>
      <point x="397" y="819"/>
      <point x="703" y="1117"/>
      <point x="987" y="1117" type="qcurve"/>
      <point x="1267" y="1117"/>
      <point x="1557" y="877"/>
      <point x="1557" y="677" type="qcurve"/>
      <point x="1557" y="604"/>
      <point x="1537" y="497"/>
      <point x="1507" y="440"/>
      <point x="1461" y="407"/>
      <point x="1423" y="398"/>
      <point x="1399" y="398" type="qcurve"/>
    </contour>
    <contour>
      <point x="923" y="582" type="qcurve"/>
      <point x="923" y="632"/>
      <point x="929" y="706"/>
      <point x="945" y="778"/>
      <point x="978" y="817"/>
      <point x="1003" y="817" type="qcurve"/>
      <point x="1045" y="817"/>
      <point x="1079" y="754"/>
      <point x="1079" y="671" type="qcurve"/>
      <point x="1079" y="409" type="line"/>
      <point x="1051" y="374"/>
      <point x="996" y="374" type="qcurve"/>
      <point x="963" y="374"/>
      <point x="923" y="489"/>
    </contour>
  </outline>
</glyph>
<glyph name="A" format="1">
  <advance width="1643"/>
  <unicode hex="0041"/>
  <outline>
    <contour>
      <point x="1185" y="1623" type="line"/>
      <point x="191" y="1623" type="line"/>
      <point x="191" y="1270" type="line"/>
      <point x="403" y="1270" type="line"/>
      <point x="231" y="591" type="line"/>
      <point x="204" y="486"/>
      <point x="193" y="462" type="qcurve"/>
      <point x="160" y="386"/>
      <point x="82" y="367" type="qcurve"/>
      <point x="48" y="359"/>
      <point x="4" y="359" type="qcurve"/>
      <point x="4" y="0" type="line"/>
      <point x="682" y="0" type="line"/>
      <point x="682" y="359" type="line"/>
      <point x="598" y="359" type="line"/>
      <point x="577" y="359"/>
      <point x="555" y="431"/>
      <point x="555" y="459" type="qcurve"/>
      <point x="556" y="480"/>
      <point x="558" y="502"/>
      <point x="572" y="523"/>
      <point x="585" y="523" type="qcurve"/>
      <point x="860" y="523" type="line"/>
      <point x="927" y="523"/>
      <point x="927" y="359" type="qcurve"/>
      <point x="807" y="359" type="line"/>
      <point x="808" y="0" type="line"/>
      <point x="1634" y="0" type="line"/>
      <point x="1634" y="359" type="line"/>
      <point x="1548" y="359" type="line"/>
      <point x="1533" y="359"/>
      <point x="1511" y="384"/>
      <point x="1500" y="416"/>
      <point x="1492" y="447" type="qcurve"/>
    </contour>
    <contour>
      <point x="612" y="773" type="line"/>
      <point x="724" y="1281" type="line"/>
      <point x="841" y="773" type="line"/>
    </contour>
  </outline>
</glyph>
<glyph name="B" format="1">
  <advance width="1666"/>
  <unicode hex="0042"/>
  <outline>
    <contour>
      <point x="89" y="0" type="line"/>
      <point x="1031" y="0" type="line"/>
      <point x="1160" y="0"/>
      <point x="1367" y="46"/>
      <point x="1528" y="143"/>
      <point x="1616" y="308"/>
      <point x="1616" y="420" type="qcurve"/>
      <point x="1616" y="589"/>
      <point x="1452" y="805"/>
      <point x="1302" y="848" type="qcurve"/>
      <point x="1302" y="850" type="line"/>
      <point x="1411" y="891"/>
      <point x="1547" y="1080"/>
      <point x="1547" y="1204" type="qcurve"/>
      <point x="1547" y="1304"/>
      <point x="1487" y="1452"/>
      <point x="1382" y="1546"/>
      <point x="1217" y="1602"/>
      <point x="1032" y="1623"/>
      <point x="910" y="1623" type="qcurve"/>
      <point x="96" y="1622" type="line"/>
      <point x="96" y="1270" type="line"/>
      <point x="262" y="1270" type="line"/>
      <point x="261" y="359" type="line"/>
      <point x="89" y="359" type="line"/>
    </contour>
    <contour>
      <point x="863" y="700" type="qcurve"/>
      <point x="892" y="700"/>
      <point x="938" y="695"/>
      <point x="995" y="674"/>
      <point x="1034" y="638"/>
      <point x="1061" y="572"/>
      <point x="1061" y="527" type="qcurve"/>
      <point x="1061" y="502"/>
      <point x="1054" y="460"/>
      <point x="1041" y="429"/>
      <point x="1023" y="403"/>
      <point x="1000" y="386"/>
      <point x="972" y="373"/>
      <point x="941" y="366"/>
      <point x="907" y="361"/>
      <point x="870" y="359"/>
      <point x="831" y="358"/>
      <point x="811" y="359" type="qcurve"/>
      <point x="796" y="359"/>
      <point x="789" y="359" type="qcurve"/>
      <point x="789" y="699" type="line"/>
      <point x="852" y="700"/>
    </contour>
    <contour>
      <point x="789" y="1270" type="line"/>
      <point x="915" y="1270" type="line"/>
      <point x="971" y="1270"/>
      <point x="1053" y="1198"/>
      <point x="1053" y="1131" type="qcurve"/>
      <point x="1053" y="1076"/>
      <point x="1020" y="1005"/>
      <point x="952" y="972"/>
      <point x="883" y="961"/>
      <point x="830" y="961" type="qcurve"/>
      <point x="789" y="961" type="line"/>
    </contour>
  </outline>
</glyph>
<glyph name="I" format="1">
  <advance width="1076"/>
  <unicode hex="0049"/>
  <outline>
    <contour>
      <point x="972" y="1623" type="line"/>
      <point x="108" y="1623" type="line"/>
      <point x="108" y="1270" type="line"/>
      <point x="251" y="1270" type="line"/>
      <point x="251" y="359" type="line"/>
      <point x="104" y="359" type="line"/>
      <point x="104" y="0" type="line"/>
      <point x="966" y="0" type="line"/>
      <point x="966" y="359" type="line"/>
      <point x="825" y="359" type="line"/>
      <point x="825" y="1270" type="line"/>
      <point x="972" y="1270" type="line"/>
    </contour>
  </outline>
</glyph>
<glyph name="L" format="1">
  <advance width="1421"/>
  <unicode hex="004C"/>
  <outline>
    <contour>
      <point x="818" y="1270" type="line"/>
      <point x="972" y="1270" type="line"/>
      <point x="972" y="1622" type="line"/>
      <point x="104" y="1622" type="line"/>
      <point x="104" y="1270" type="line"/>
      <point x="251" y="1270" type="line"/>
      <point x="251" y="359" type="line"/>
      <point x="108" y="359" type="line"/>
      <point x="109" y="0" type="line"/>
      <point x="1382" y="0" type="line"/>
      <point x="1382" y="709" type="line"/>
      <point x="1096" y="709" type="line"/>
      <point x="1009" y="359" type="line"/>
      <point x="818" y="359" type="line"/>
    </contour>
  </outline>
</glyph>
<glyph name="M" format="1">
  <advance width="2408"/>
  <unicode hex="004D"/>
  <outline>
    <contour>
      <point x="589" y="999" type="line"/>
      <point x="1005" y="0" type="line"/>
      <point x="1286" y="0" type="line"/>
      <point x="1628" y="977" type="line"/>
      <point x="1628" y="359" type="line"/>
      <point x="1505" y="359" type="line"/>
      <point x="1505" y="0" type="line"/>
      <point x="2308" y="0" type="line"/>
      <point x="2308" y="359" type="line"/>
      <point x="2154" y="359" type="line"/>
      <point x="2154" y="1270" type="line"/>
      <point x="2301" y="1270" type="line"/>
      <point x="2301" y="1623" type="line"/>
      <point x="1517" y="1623" type="line"/>
      <point x="1241" y="856" type="line"/>
      <point x="931" y="1623" type="line"/>
      <point x="96" y="1623" type="line"/>
      <point x="97" y="1270" type="line"/>
      <point x="264" y="1270" type="line"/>
      <point x="264" y="608" type="line"/>
      <point x="264" y="574"/>
      <point x="264" y="541"/>
      <point x="261" y="486"/>
      <point x="255" y="460"/>
      <point x="244" y="420"/>
      <point x="228" y="401"/>
      <point x="203" y="377"/>
      <point x="171" y="367"/>
      <point x="127" y="359"/>
      <point x="100" y="359" type="qcurve"/>
      <point x="100" y="0" type="line"/>
      <point x="751" y="0" type="line"/>
      <point x="751" y="359" type="line"/>
      <point x="724" y="359"/>
      <point x="680" y="366"/>
      <point x="648" y="375"/>
      <point x="624" y="395"/>
      <point x="608" y="409"/>
      <point x="597" y="440"/>
      <point x="592" y="457"/>
      <point x="589" y="496"/>
      <point x="589" y="514"/>
      <point x="589" y="535" type="qcurve"/>
    </contour>
  </outline>
</glyph>
<glyph name="Q" format="1">
  <advance width="1765"/>
  <unicode hex="0051"/>
  <outline>
    <contour>
      <point x="893" y="-30" type="qcurve"/>
      <point x="933" y="-30"/>
      <point x="1009" y="-22" type="qcurve"/>
      <point x="1260" y="0" type="line"/>
      <point x="1744" y="0" type="line"/>
      <point x="1744" y="359" type="line"/>
      <point x="1581" y="359" type="line"/>
      <point x="1702" y="562"/>
      <point x="1702" y="807" type="qcurve"/>
      <point x="1702" y="1001"/>
      <point x="1579" y="1321"/>
      <point x="1362" y="1535"/>
      <point x="1063" y="1652"/>
      <point x="887" y="1652" type="qcurve"/>
      <point x="641" y="1652"/>
      <point x="260" y="1440"/>
      <point x="53" y="1059"/>
      <point x="53" y="815" type="qcurve"/>
      <point x="53" y="565"/>
      <point x="259" y="182"/>
      <point x="641" y="-30"/>
    </contour>
    <contour>
      <point x="670" y="777" type="qcurve"/>
      <point x="670" y="839"/>
      <point x="670" y="952"/>
      <point x="678" y="1053"/>
      <point x="693" y="1137"/>
      <point x="723" y="1204"/>
      <point x="769" y="1250"/>
      <point x="837" y="1275"/>
      <point x="882" y="1275" type="qcurve"/>
      <point x="933" y="1275"/>
      <point x="1008" y="1238"/>
      <point x="1052" y="1158"/>
      <point x="1079" y="1085"/>
      <point x="1090" y="959"/>
      <point x="1092" y="887"/>
      <point x="1092" y="822" type="qcurve"/>
      <point x="1092" y="807"/>
      <point x="1092" y="775" type="qcurve"/>
      <point x="1095" y="732"/>
      <point x="1090" y="634"/>
      <point x="1084" y="537"/>
      <point x="1057" y="447"/>
      <point x="1016" y="379"/>
      <point x="942" y="338"/>
      <point x="893" y="338" type="qcurve"/>
      <point x="854" y="338"/>
      <point x="792" y="356"/>
      <point x="747" y="394"/>
      <point x="714" y="438"/>
      <point x="693" y="507"/>
      <point x="679" y="568"/>
      <point x="673" y="658"/>
      <point x="670" y="726"/>
    </contour>
  </outline>
</glyph>
<glyph name="U" format="1">
  <advance width="1683"/>
  <unicode hex="0055"/>
  <outline>
    <contour>
      <point x="1485" y="1270" type="line"/>
      <point x="1639" y="1270" type="line"/>
      <point x="1639" y="1622" type="line"/>
      <point x="985" y="1622" type="line"/>
      <point x="985" y="1270" type="line"/>
      <point x="1149" y="1270" type="line"/>
      <point x="1149" y="536" type="line"/>
      <point x="1149" y="448"/>
      <point x="1045" y="346"/>
      <point x="953" y="346" type="qcurve"/>
      <point x="901" y="346"/>
      <point x="824" y="390"/>
      <point x="783" y="465"/>
      <point x="764" y="551"/>
      <point x="764" y="600" type="qcurve"/>
      <point x="764" y="1270" type="line"/>
      <point x="912" y="1270" type="line"/>
      <point x="912" y="1622" type="line"/>
      <point x="43" y="1622" type="line"/>
      <point x="43" y="1270" type="line"/>
      <point x="204" y="1270" type="line"/>
      <point x="204" y="704" type="line"/>
      <point x="204" y="616"/>
      <point x="219" y="466"/>
      <point x="258" y="314"/>
      <point x="320" y="192"/>
      <point x="418" y="84"/>
      <point x="547" y="12"/>
      <point x="725" y="-29"/>
      <point x="834" y="-29" type="qcurve"/>
      <point x="1005" y="-29"/>
      <point x="1301" y="107"/>
      <point x="1485" y="362"/>
      <point x="1485" y="520" type="qcurve"/>
    </contour>
  </outline>
</glyph>
<glyph name="V" format="1">
  <advance width="1668"/>
  <unicode hex="0056"/>
  <outline>
    <contour>
      <point x="743" y="1270" type="line"/>
      <point x="859" y="1270" type="line"/>
      <point x="859" y="1622" type="line"/>
      <point x="-6" y="1622" type="line"/>
      <point x="-6" y="1270" type="line"/>
      <point x="160" y="1270" type="line"/>
      <point x="521" y="0" type="line"/>
      <point x="1105" y="0" type="line"/>
      <point x="1459" y="1032" type="line"/>
      <point x="1465" y="1049"/>
      <point x="1486" y="1113"/>
      <point x="1495" y="1139"/>
      <point x="1514" y="1187"/>
      <point x="1528" y="1206"/>
      <point x="1552" y="1238"/>
      <point x="1577" y="1250"/>
      <point x="1613" y="1265"/>
      <point x="1657" y="1270"/>
      <point x="1684" y="1270" type="qcurve"/>
      <point x="1684" y="1622" type="line"/>
      <point x="990" y="1622" type="line"/>
      <point x="990" y="1270" type="line"/>
      <point x="1064" y="1270"/>
      <point x="1137" y="1223"/>
      <point x="1139" y="1139"/>
      <point x="1121" y="1081" type="qcurve"/>
      <point x="945" y="517" type="line"/>
    </contour>
  </outline>
</glyph>
<glyph name="W" format="1">
  <advance width="2460"/>
  <unicode hex="0057"/>
  <outline>
    <contour>
      <point x="-4" y="1623" type="line"/>
      <point x="-5" y="1270" type="line"/>
      <point x="139" y="1270" type="line"/>
      <point x="488" y="0" type="line"/>
      <point x="1025" y="0" type="line"/>
      <point x="1227" y="706" type="line"/>
      <point x="1420" y="0" type="line"/>
      <point x="1963" y="0" type="line"/>
      <point x="2284" y="1148" type="line"/>
      <point x="2304" y="1219"/>
      <point x="2389" y="1270"/>
      <point x="2473" y="1270" type="qcurve"/>
      <point x="2473" y="1623" type="line"/>
      <point x="1822" y="1623" type="line"/>
      <point x="1822" y="1270" type="line"/>
      <point x="1896" y="1270"/>
      <point x="1944" y="1245"/>
      <point x="1932" y="1201" type="qcurve"/>
      <point x="1797" y="703" type="line"/>
      <point x="1544" y="1623" type="line"/>
      <point x="1135" y="1623" type="line"/>
      <point x="875" y="672" type="line"/>
      <point x="716" y="1270" type="line"/>
      <point x="857" y="1270" type="line"/>
      <point x="857" y="1623" type="line"/>
    </contour>
  </outline>
</glyph>
<glyph name="Y" format="1">
  <advance width="1559"/>
  <unicode hex="0059"/>
  <outline>
    <contour>
      <point x="1564" y="1622" type="line"/>
      <point x="927" y="1622" type="line"/>
      <point x="927" y="1270" type="line"/>
      <point x="935" y="1270"/>
      <point x="964" y="1270"/>
      <point x="978" y="1270"/>
      <point x="1000" y="1270"/>
      <point x="1011" y="1267"/>
      <point x="1026" y="1263"/>
      <point x="1033" y="1255"/>
      <point x="1041" y="1245"/>
      <point x="1044" y="1230"/>
      <point x="1044" y="1221" type="qcurve"/>
      <point x="1044" y="1166"/>
      <point x="930" y="993" type="qcurve"/>
      <point x="909" y="1023"/>
      <point x="768" y="1240"/>
      <point x="746" y="1270" type="qcurve"/>
      <point x="837" y="1270" type="line"/>
      <point x="837" y="1622" type="line"/>
      <point x="-15" y="1622" type="line"/>
      <point x="-15" y="1270" type="line"/>
      <point x="97" y="1270" type="line"/>
      <point x="518" y="672" type="line"/>
      <point x="518" y="359" type="line"/>
      <point x="363" y="359" type="line"/>
      <point x="363" y="0" type="line"/>
      <point x="1232" y="0" type="line"/>
      <point x="1232" y="359" type="line"/>
      <point x="1075" y="359" type="line"/>
      <point x="1075" y="724" type="line"/>
      <point x="1279" y="1095" type="line"/>
      <point x="1303" y="1140"/>
      <point x="1326" y="1179"/>
      <point x="1366" y="1233"/>
      <point x="1402" y="1254"/>
      <point x="1455" y="1270"/>
      <point x="1490" y="1270" type="qcurve"/>
      <point x="1564" y="1270" type="line"/>
    </contour>
  </outline>
</glyph>
<glyph name="bracketleft" format="1">
  <advance width="910"/>
  <unicode hex="005B"/>
  <outline>
    <contour>
      <point x="145" y="0" type="line"/>
      <point x="145" y="1623" type="line"/>
      <point x="859" y="1623" type="line"/>
      <point x="859" y="1322" type="line"/>
      <point x="662" y="1322" type="line"/>
      <point x="662" y="311" type="line"/>
      <point x="855" y="311" type="line"/>
      <point x="854" y="0" type="line"/>
    </contour>
  </outline>
</glyph>
<glyph name="bracketright" format="1">
  <advance width="909"/>
  <unicode hex="005D"/>
  <outline>
    <contour>
      <point x="764" y="0" type="line"/>
      <point x="764" y="1623" type="line"/>
      <point x="50" y="1623" type="line"/>
      <point x="50" y="1322" type="line"/>
      <point x="247" y="1322" type="line"/>
      <point x="247" y="311" type="line"/>
      <point x="54" y="311" type="line"/>
      <point x="55" y="0" type="line"/>
    </contour>
  </outline>
</glyph>
<glyph name="b" format="1">
  <advance width="1401"/>
  <unicode hex="0062"/>
  <outline>
    <contour>
      <point x="599" y="1631" type="line"/>
      <point x="33" y="1631" type="line"/>
      <point x="33" y="1325" type="line"/>
      <point x="117" y="1325" type="line"/>
      <point x="117" y="0" type="line"/>
      <point x="567" y="0" type="line"/>
      <point x="607" y="102" type="line"/>
      <point x="705" y="32"/>
      <point x="742" y="14" type="qcurve"/>
      <point x="808" y="-18"/>
      <point x="883" y="-18" type="qcurve"/>
      <point x="976" y="-18"/>
      <point x="1133" y="44"/>
      <point x="1243" y="150"/>
      <point x="1320" y="292"/>
      <point x="1356" y="452"/>
      <point x="1356" y="538" type="qcurve"/>
      <point x="1356" y="619"/>
      <point x="1321" y="776"/>
      <point x="1248" y="919"/>
      <point x="1143" y="1028"/>
      <point x="993" y="1092"/>
      <point x="904" y="1092" type="qcurve"/>
      <point x="756" y="1092"/>
      <point x="599" y="965" type="qcurve"/>
    </contour>
    <contour>
      <point x="603" y="662" type="line"/>
      <point x="605" y="666"/>
      <point x="612" y="679"/>
      <point x="638" y="712"/>
      <point x="666" y="737"/>
      <point x="713" y="758"/>
      <point x="738" y="758" type="qcurve"/>
      <point x="777" y="758"/>
      <point x="834" y="724"/>
      <point x="866" y="676"/>
      <point x="885" y="607"/>
      <point x="890" y="550"/>
      <point x="890" y="519" type="qcurve"/>
      <point x="890" y="427"/>
      <point x="804" y="328"/>
      <point x="738" y="328" type="qcurve"/>
      <point x="702" y="328"/>
      <point x="634" y="362"/>
      <point x="618" y="379" type="qcurve"/>
      <point x="603" y="396" type="line"/>
    </contour>
  </outline>
</glyph>
<glyph name="c" format="1">
  <advance width="1110"/>
  <unicode hex="0063"/>
  <outline>
    <contour>
      <point x="43" y="546" type="qcurve"/>
      <point x="43" y="368"/>
      <point x="190" y="109"/>
      <point x="437" y="-18"/>
      <point x="595" y="-18" type="qcurve"/>
      <point x="721" y="-18"/>
      <point x="969" y="55"/>
      <point x="1038" y="124" type="qcurve"/>
      <point x="1038" y="425" type="line"/>
      <point x="798" y="425" type="line"/>
      <point x="797" y="420"/>
      <point x="794" y="402"/>
      <point x="777" y="357"/>
      <point x="752" y="323"/>
      <point x="703" y="295"/>
      <point x="671" y="295" type="qcurve"/>
      <point x="628" y="295"/>
      <point x="565" y="335"/>
      <point x="531" y="401"/>
      <point x="516" y="473"/>
      <point x="516" y="513" type="qcurve"/>
      <point x="516" y="648"/>
      <point x="608" y="778"/>
      <point x="671" y="778" type="qcurve"/>
      <point x="722" y="778"/>
      <point x="794" y="694"/>
      <point x="794" y="628" type="qcurve"/>
      <point x="1036" y="628" type="line"/>
      <point x="1036" y="1072" type="line"/>
      <point x="861" y="1072" type="line"/>
      <point x="820" y="995" type="line"/>
      <point x="699" y="1092"/>
      <point x="562" y="1092" type="qcurve"/>
      <point x="445" y="1092"/>
      <point x="247" y="1003"/>
      <point x="116" y="853"/>
      <point x="43" y="655"/>
    </contour>
  </outline>
</glyph>
<glyph name="d" format="1">
  <advance width="1442"/>
  <unicode hex="0064"/>
  <outline>
    <contour>
      <point x="1370" y="305" type="line"/>
      <point x="1293" y="305" type="line"/>
      <point x="1292" y="1640" type="line"/>
      <point x="707" y="1640" type="line"/>
      <point x="707" y="1335" type="line"/>
      <point x="797" y="1335" type="line"/>
      <point x="797" y="960" type="line"/>
      <point x="729" y="1029"/>
      <point x="590" y="1090"/>
      <point x="498" y="1090" type="qcurve"/>
      <point x="395" y="1090"/>
      <point x="220" y="996"/>
      <point x="106" y="842"/>
      <point x="43" y="650"/>
      <point x="43" y="550" type="qcurve"/>
      <point x="43" y="445"/>
      <point x="101" y="247"/>
      <point x="211" y="82"/>
      <point x="393" y="-19"/>
      <point x="506" y="-19" type="qcurve"/>
      <point x="596" y="-18"/>
      <point x="750" y="60"/>
      <point x="801" y="128" type="qcurve"/>
      <point x="801" y="0" type="line"/>
      <point x="1370" y="0" type="line"/>
    </contour>
    <contour>
      <point x="801" y="415" type="line"/>
      <point x="799" y="411"/>
      <point x="792" y="398"/>
      <point x="766" y="365"/>
      <point x="738" y="340"/>
      <point x="691" y="319"/>
      <point x="666" y="319" type="qcurve"/>
      <point x="627" y="319"/>
      <point x="570" y="353"/>
      <point x="538" y="401"/>
      <point x="519" y="470"/>
      <point x="514" y="527"/>
      <point x="514" y="558" type="qcurve"/>
      <point x="514" y="650"/>
      <point x="600" y="749"/>
      <point x="666" y="749" type="qcurve"/>
      <point x="702" y="749"/>
      <point x="770" y="715"/>
      <point x="786" y="698" type="qcurve"/>
      <point x="801" y="681" type="line"/>
    </contour>
  </outline>
</glyph>
<glyph name="g" format="1">
  <advance width="1414"/>
  <unicode hex="0067"/>
  <outline>
    <contour>
      <point x="564" y="-389" type="qcurve"/>
      <point x="1258" y="-389"/>
      <point x="1258" y="135" type="qcurve"/>
      <point x="1258" y="761" type="line"/>
      <point x="1345" y="761" type="line"/>
      <point x="1345" y="1072" type="line"/>
      <point x="892" y="1072" type="line"/>
      <point x="859" y="997" type="line"/>
      <point x="686" y="1090"/>
      <point x="534" y="1090" type="qcurve"/>
      <point x="395" y="1090"/>
      <point x="168" y="933"/>
      <point x="45" y="686"/>
      <point x="45" y="548" type="qcurve"/>
      <point x="45" y="445"/>
      <point x="108" y="259"/>
      <point x="226" y="114"/>
      <point x="410" y="28"/>
      <point x="522" y="28" type="qcurve"/>
      <point x="599" y="28"/>
      <point x="751" y="75"/>
      <point x="809" y="117" type="qcurve"/>
      <point x="809" y="53"/>
      <point x="775" y="-29"/>
      <point x="700" y="-72"/>
      <point x="609" y="-87"/>
      <point x="540" y="-87" type="qcurve"/>
      <point x="362" y="-87"/>
      <point x="176" y="-19" type="qcurve"/>
      <point x="176" y="-328" type="line"/>
      <point x="189" y="-335"/>
      <point x="244" y="-355"/>
      <point x="445" y="-389"/>
    </contour>
    <contour>
      <point x="528" y="532" type="qcurve"/>
      <point x="528" y="593"/>
      <point x="551" y="690"/>
      <point x="615" y="760"/>
      <point x="665" y="760" type="qcurve"/>
      <point x="713" y="760"/>
      <point x="781" y="683"/>
      <point x="808" y="580"/>
      <point x="808" y="523" type="qcurve"/>
      <point x="808" y="486"/>
      <point x="793" y="412"/>
      <point x="763" y="343"/>
      <point x="708" y="299"/>
      <point x="673" y="299" type="qcurve"/>
      <point x="620" y="299"/>
      <point x="552" y="373"/>
      <point x="528" y="472"/>
    </contour>
  </outline>
</glyph>
<glyph name="h" format="1">
  <advance width="1451"/>
  <unicode hex="0068"/>
  <outline>
    <contour>
      <point x="71" y="0" type="line"/>
      <point x="724" y="0" type="line"/>
      <point x="724" y="305" type="line"/>
      <point x="644" y="305" type="line"/>
      <point x="644" y="626" type="line"/>
      <point x="644" y="744"/>
      <point x="745" y="744" type="qcurve"/>
      <point x="827" y="744"/>
      <point x="828" y="619" type="qcurve"/>
      <point x="828" y="0" type="line"/>
      <point x="1404" y="0" type="line"/>
      <point x="1404" y="305" type="line"/>
      <point x="1318" y="305" type="line"/>
      <point x="1318" y="702" type="line"/>
      <point x="1318" y="891"/>
      <point x="1130" y="1090"/>
      <point x="960" y="1090" type="qcurve"/>
      <point x="925" y="1090"/>
      <point x="860" y="1078"/>
      <point x="815" y="1065"/>
      <point x="760" y="1031"/>
      <point x="734" y="1013"/>
      <point x="682" y="962"/>
      <point x="667" y="946"/>
      <point x="640" y="916" type="qcurve"/>
      <point x="640" y="1640" type="line"/>
      <point x="67" y="1640" type="line"/>
      <point x="67" y="1332" type="line"/>
      <point x="151" y="1332" type="line"/>
      <point x="151" y="305" type="line"/>
      <point x="72" y="305" type="line"/>
    </contour>
  </outline>
</glyph>
<glyph name="i" format="1">
  <advance width="814"/>
  <unicode hex="0069"/>
  <outline>
    <contour>
      <point x="661" y="1072" type="line"/>
      <point x="91" y="1072" type="line"/>
      <point x="91" y="761" type="line"/>
      <point x="180" y="761" type="line"/>
      <point x="180" y="305" type="line"/>
      <point x="98" y="305" type="line"/>
      <point x="98" y="0" type="line"/>
      <point x="745" y="0" type="line"/>
      <point x="745" y="305" type="line"/>
      <point x="661" y="305" type="line"/>
    </contour>
    <contour>
      <point x="380" y="1135" type="qcurve"/>
      <point x="261" y="1135"/>
      <point x="103" y="1270"/>
      <point x="103" y="1385" type="qcurve"/>
      <point x="103" y="1498"/>
      <point x="258" y="1630"/>
      <point x="380" y="1630" type="qcurve"/>
      <point x="507" y="1630"/>
      <point x="667" y="1498"/>
      <point x="667" y="1385" type="qcurve"/>
      <point x="667" y="1270"/>
      <point x="502" y="1135"/>
    </contour>
  </outline>
</glyph>
<glyph name="l" format="1">
  <advance width="794"/>
  <unicode hex="006C"/>
  <outline>
    <contour>
      <point x="644" y="1630" type="line"/>
      <point x="65" y="1630" type="line"/>
      <point x="65" y="1317" type="line"/>
      <point x="149" y="1317" type="line"/>
      <point x="149" y="305" type="line"/>
      <point x="75" y="305" type="line"/>
      <point x="75" y="0" type="line"/>
      <point x="722" y="0" type="line"/>
      <point x="722" y="305" type="line"/>
      <point x="644" y="305" type="line"/>
    </contour>
  </outline>
</glyph>
<glyph name="m" format="1">
  <advance width="2073"/>
  <unicode hex="006D"/>
  <outline>
    <contour>
      <point x="1379" y="0" type="line"/>
      <point x="1379" y="305" type="line"/>
      <point x="1294" y="305" type="line"/>
      <point x="1294" y="579" type="line"/>
      <point x="1294" y="603"/>
      <point x="1295" y="629"/>
      <point x="1299" y="675"/>
      <point x="1310" y="701"/>
      <point x="1327" y="730"/>
      <point x="1357" y="743"/>
      <point x="1377" y="743" type="qcurve"/>
      <point x="1413" y="743"/>
      <point x="1453" y="689"/>
      <point x="1455" y="662" type="qcurve"/>
      <point x="1457" y="635" type="line"/>
      <point x="1457" y="0" type="line"/>
      <point x="2016" y="0" type="line"/>
      <point x="2016" y="305" type="line"/>
      <point x="1942" y="305" type="line"/>
      <point x="1942" y="729" type="line"/>
      <point x="1942" y="824"/>
      <point x="1886" y="967"/>
      <point x="1787" y="1051"/>
      <point x="1664" y="1092"/>
      <point x="1592" y="1092" type="qcurve"/>
      <point x="1395" y="1092"/>
      <point x="1273" y="891" type="qcurve"/>
      <point x="1226" y="988"/>
      <point x="1067" y="1092"/>
      <point x="975" y="1092" type="qcurve"/>
      <point x="886" y="1092"/>
      <point x="717" y="996"/>
      <point x="654" y="902" type="qcurve"/>
      <point x="654" y="1072" type="line"/>
      <point x="94" y="1072" type="line"/>
      <point x="94" y="761" type="line"/>
      <point x="168" y="761" type="line"/>
      <point x="168" y="299" type="line"/>
      <point x="95" y="299" type="line"/>
      <point x="95" y="0" type="line"/>
      <point x="732" y="0" type="line"/>
      <point x="732" y="303" type="line"/>
      <point x="652" y="303" type="line"/>
      <point x="652" y="541" type="line"/>
      <point x="652" y="639"/>
      <point x="661" y="671" type="qcurve"/>
      <point x="678" y="738"/>
      <point x="738" y="738" type="qcurve"/>
      <point x="816" y="738"/>
      <point x="816" y="638" type="qcurve"/>
      <point x="816" y="0" type="line"/>
    </contour>
  </outline>
</glyph>
<glyph name="p" format="1">
  <advance width="1438"/>
  <unicode hex="0070"/>
  <outline>
    <contour>
      <point x="740" y="-397" type="line"/>
      <point x="740" y="-96" type="line"/>
      <point x="629" y="-96" type="line"/>
      <point x="629" y="119" type="line"/>
      <point x="670" y="86"/>
      <point x="710" y="57"/>
      <point x="797" y="6"/>
      <point x="888" y="-17"/>
      <point x="940" y="-17" type="qcurve"/>
      <point x="1049" y="-17"/>
      <point x="1226" y="78"/>
      <point x="1335" y="237"/>
      <point x="1393" y="434"/>
      <point x="1393" y="541" type="qcurve"/>
      <point x="1393" y="649"/>
      <point x="1333" y="847"/>
      <point x="1222" y="1001"/>
      <point x="1048" y="1093"/>
      <point x="942" y="1093" type="qcurve"/>
      <point x="849" y="1093"/>
      <point x="714" y="1028"/>
      <point x="650" y="956" type="qcurve"/>
      <point x="640" y="956" type="line"/>
      <point x="640" y="1072" type="line"/>
      <point x="76" y="1072" type="line"/>
      <point x="76" y="761" type="line"/>
      <point x="150" y="761" type="line"/>
      <point x="150" y="-94" type="line"/>
      <point x="66" y="-94" type="line"/>
      <point x="66" y="-398" type="line"/>
    </contour>
    <contour>
      <point x="629" y="417" type="line"/>
      <point x="629" y="645" type="line"/>
      <point x="630" y="649"/>
      <point x="634" y="661"/>
      <point x="654" y="694"/>
      <point x="681" y="719"/>
      <point x="730" y="739"/>
      <point x="761" y="739" type="qcurve"/>
      <point x="924" y="739"/>
      <point x="924" y="545" type="qcurve"/>
      <point x="924" y="501"/>
      <point x="909" y="424"/>
      <point x="874" y="352"/>
      <point x="806" y="310"/>
      <point x="758" y="310" type="qcurve"/>
      <point x="726" y="310"/>
      <point x="676" y="332"/>
      <point x="650" y="364"/>
      <point x="633" y="395"/>
      <point x="631" y="406" type="qcurve"/>
    </contour>
  </outline>
</glyph>
<glyph name="t" format="1">
  <advance width="873"/>
  <unicode hex="0074"/>
  <outline>
    <contour>
      <point x="837" y="348" type="line"/>
      <point x="774" y="334"/>
      <point x="729" y="334" type="qcurve"/>
      <point x="673" y="334"/>
      <point x="631" y="399"/>
      <point x="631" y="438" type="qcurve"/>
      <point x="632" y="761" type="line"/>
      <point x="784" y="761" type="line"/>
      <point x="784" y="1072" type="line"/>
      <point x="632" y="1072" type="line"/>
      <point x="632" y="1406" type="line"/>
      <point x="145" y="1301" type="line"/>
      <point x="145" y="1072" type="line"/>
      <point x="42" y="1072" type="line"/>
      <point x="42" y="761" type="line"/>
      <point x="150" y="761" type="line"/>
      <point x="149" y="385" type="line"/>
      <point x="147" y="-18"/>
      <point x="529" y="-18" type="qcurve"/>
      <point x="609" y="-18"/>
      <point x="763" y="15"/>
      <point x="800" y="32" type="qcurve"/>
      <point x="837" y="49" type="line"/>
    </contour>
  </outline>
</glyph>
<glyph name="u" format="1">
  <advance width="1465"/>
  <unicode hex="0075"/>
  <outline>
    <contour>
      <point x="821" y="0" type="line"/>
      <point x="1391" y="0" type="line"/>
      <point x="1391" y="305" type="line"/>
      <point x="1315" y="305" type="line"/>
      <point x="1315" y="1072" type="line"/>
      <point x="740" y="1072" type="line"/>
      <point x="740" y="761" type="line"/>
      <point x="821" y="761" type="line"/>
      <point x="821" y="438" type="line"/>
      <point x="821" y="387"/>
      <point x="764" y="318"/>
      <point x="717" y="318" type="qcurve"/>
      <point x="681" y="318"/>
      <point x="627" y="385"/>
      <point x="627" y="438" type="qcurve"/>
      <point x="627" y="1072" type="line"/>
      <point x="53" y="1072" type="line"/>
      <point x="53" y="761" type="line"/>
      <point x="133" y="761" type="line"/>
      <point x="133" y="385" type="line"/>
      <point x="133" y="-18"/>
      <point x="463" y="-18" type="qcurve"/>
      <point x="581" y="-18"/>
      <point x="766" y="71"/>
      <point x="821" y="156" type="qcurve"/>
    </contour>
  </outline>
</glyph>
<glyph name="bar" format="1">
  <advance width="685"/>
  <unicode hex="007C"/>
  <outline>
    <contour>
      <point x="145" y="1623" type="line"/>
      <point x="145" y="0" type="line"/>
      <point x="540" y="0" type="line"/>
      <point x="540" y="1623" type="line"/>
    </contour>
  </outline>
</glyph>
<glyph name="exclamdown" format="1">
  <advance width="804"/>
  <unicode hex="00A1"/>
  <outline>
    <contour>
      <point x="611" y="1072" type="line"/>
      <point x="190" y="1074" type="line"/>
      <point x="108" y="299" type="line"/>
      <point x="108" y="0" type="line"/>
      <point x="695" y="0" type="line"/>
      <point x="695" y="299" type="line"/>
    </contour>
    <contour>
      <point x="400" y="1158" type="qcurve"/>
      <point x="281" y="1158"/>
      <point x="123" y="1293"/>
      <point x="123" y="1408" type="qcurve"/>
      <point x="123" y="1521"/>
      <point x="278" y="1653"/>
      <point x="400" y="1653" type="qcurve"/>
      <point x="527" y="1653"/>
      <point x="687" y="1521"/>
      <point x="687" y="1408" type="qcurve"/>
      <point x="687" y="1293"/>
      <point x="522" y="1158"/>
    </contour>
  </outline>
</glyph>
<glyph name="currency" format="1">
  <advance width="1292"/>
  <unicode hex="00A4"/>
  <outline>
    <contour>
      <point x="70" y="1097" type="qcurve"/>
      <point x="70" y="879"/>
      <point x="192" y="734" type="qcurve"/>
      <point x="118" y="660" type="line"/>
      <point x="221" y="557" type="line"/>
      <point x="302" y="638" type="line"/>
      <point x="450" y="540"/>
      <point x="644" y="540" type="qcurve"/>
      <point x="842" y="540"/>
      <point x="993" y="643" type="qcurve"/>
      <point x="1079" y="557" type="line"/>
      <point x="1182" y="660" type="line"/>
      <point x="1101" y="741" type="line"/>
      <point x="1218" y="884"/>
      <point x="1218" y="1097" type="qcurve"/>
      <point x="1218" y="1302"/>
      <point x="1108" y="1444" type="qcurve"/>
      <point x="1182" y="1518" type="line"/>
      <point x="1079" y="1621" type="line"/>
      <point x="1002" y="1544" type="line"/>
      <point x="849" y="1654"/>
      <point x="644" y="1654" type="qcurve"/>
      <point x="445" y="1654"/>
      <point x="292" y="1549" type="qcurve"/>
      <point x="221" y="1621" type="line"/>
      <point x="118" y="1518" type="line"/>
      <point x="185" y="1450" type="line"/>
      <point x="70" y="1307"/>
    </contour>
    <contour>
      <point x="991" y="1269" type="qcurve"/>
      <point x="1024" y="1192"/>
      <point x="1024" y="1002"/>
      <point x="959" y="847"/>
      <point x="850" y="752"/>
      <point x="716" y="701"/>
      <point x="572" y="701"/>
      <point x="438" y="752"/>
      <point x="329" y="847"/>
      <point x="264" y="1002"/>
      <point x="264" y="1192"/>
      <point x="329" y="1347"/>
      <point x="438" y="1442"/>
      <point x="572" y="1493"/>
      <point x="716" y="1493"/>
      <point x="850" y="1442"/>
      <point x="959" y="1347"/>
    </contour>
  </outline>
</glyph>
<glyph name="yen" format="1">
  <advance width="1708"/>
  <unicode hex="00A5"/>
  <outline>
    <contour>
      <point x="171" y="936" type="line"/>
      <point x="171" y="762" type="line"/>
      <point x="530" y="762" type="line"/>
      <point x="593" y="672" type="line"/>
      <point x="593" y="630" type="line"/>
      <point x="171" y="630" type="line"/>
      <point x="171" y="456" type="line"/>
      <point x="593" y="456" type="line"/>
      <point x="593" y="371" type="line"/>
      <point x="438" y="371" type="line"/>
      <point x="438" y="0" type="line"/>
      <point x="1307" y="0" type="line"/>
      <point x="1307" y="371" type="line"/>
      <point x="1150" y="371" type="line"/>
      <point x="1150" y="456" type="line"/>
      <point x="1564" y="456" type="line"/>
      <point x="1564" y="630" type="line"/>
      <point x="1150" y="630" type="line"/>
      <point x="1150" y="762" type="line"/>
      <point x="1564" y="762" type="line"/>
      <point x="1564" y="936" type="line"/>
      <point x="1253" y="936" type="line"/>
      <point x="1354" y="1095" type="line"/>
      <point x="1379" y="1141"/>
      <point x="1401" y="1179"/>
      <point x="1442" y="1234"/>
      <point x="1477" y="1255"/>
      <point x="1530" y="1272"/>
      <point x="1565" y="1272" type="qcurve"/>
      <point x="1639" y="1272" type="line"/>
      <point x="1639" y="1622" type="line"/>
      <point x="1002" y="1622" type="line"/>
      <point x="1002" y="1272" type="line"/>
      <point x="1077" y="1272"/>
      <point x="1092" y="1266" type="qcurve"/>
      <point x="1119" y="1257"/>
      <point x="1119" y="1221" type="qcurve"/>
      <point x="1119" y="1166"/>
      <point x="1005" y="993" type="qcurve"/>
      <point x="984" y="1024"/>
      <point x="843" y="1244"/>
      <point x="821" y="1274" type="qcurve"/>
      <point x="912" y="1274" type="line"/>
      <point x="912" y="1622" type="line"/>
      <point x="60" y="1622" type="line"/>
      <point x="60" y="1274" type="line"/>
      <point x="172" y="1274" type="line"/>
      <point x="408" y="936" type="line"/>
    </contour>
  </outline>
</glyph>
<glyph name="overscore" format="1">
  <advance width="774"/>
  <unicode hex="00AF"/>
  <outline>
    <contour>
      <point x="70" y="1433" type="line"/>
      <point x="70" y="1164" type="line"/>
      <point x="717" y="1164" type="line"/>
      <point x="717" y="1433" type="line"/>
    </contour>
  </outline>
</glyph>
<glyph name="paragraph" format="1">
  <advance width="1555"/>
  <unicode hex="00B6"/>
  <outline>
    <contour>
      <point x="624" y="739" type="line"/>
      <point x="491" y="739"/>
      <point x="288" y="783"/>
      <point x="132" y="881"/>
      <point x="52" y="1049"/>
      <point x="54" y="1166" type="qcurve"/>
      <point x="55" y="1241"/>
      <point x="86" y="1365"/>
      <point x="141" y="1454"/>
      <point x="217" y="1525"/>
      <point x="310" y="1568"/>
      <point x="417" y="1601"/>
      <point x="535" y="1614"/>
      <point x="661" y="1624"/>
      <point x="791" y="1622"/>
      <point x="857" y="1623" type="qcurve"/>
      <point x="901" y="1623"/>
      <point x="923" y="1623" type="qcurve"/>
      <point x="1424" y="1623" type="line"/>
      <point x="1424" y="1268" type="line"/>
      <point x="1273" y="1268" type="line"/>
      <point x="1273" y="363" type="line"/>
      <point x="1429" y="363" type="line"/>
      <point x="1429" y="0" type="line"/>
      <point x="1020" y="0" type="line"/>
      <point x="1020" y="1270" type="line"/>
      <point x="895" y="1270" type="line"/>
      <point x="895" y="0" type="line"/>
      <point x="478" y="0" type="line"/>
      <point x="478" y="363" type="line"/>
      <point x="624" y="363" type="line"/>
    </contour>
  </outline>
</glyph>
<glyph name="onequarter" format="1">
  <advance width="1721"/>
  <unicode hex="00BC"/>
  <outline>
    <contour>
      <point x="514" y="818" type="line"/>
      <point x="514" y="1008" type="line"/>
      <point x="458" y="1008" type="line"/>
      <point x="454" y="1623" type="line"/>
      <point x="67" y="1525" type="line"/>
      <point x="67" y="1374" type="line"/>
      <point x="163" y="1375" type="line"/>
      <point x="163" y="1008" type="line"/>
      <point x="110" y="1008" type="line"/>
      <point x="111" y="818" type="line"/>
    </contour>
    <contour>
      <point x="701" y="0" type="line"/>
      <point x="1203" y="1623" type="line"/>
      <point x="839" y="1623" type="line"/>
      <point x="348" y="0" type="line"/>
    </contour>
    <contour>
      <point x="1536" y="247" type="line"/>
      <point x="1670" y="247" type="line"/>
      <point x="1670" y="398" type="line"/>
      <point x="1537" y="397" type="line"/>
      <point x="1537" y="788" type="line"/>
      <point x="1279" y="789" type="line"/>
      <point x="955" y="405" type="line"/>
      <point x="955" y="247" type="line"/>
      <point x="1268" y="247" type="line"/>
      <point x="1268" y="170" type="line"/>
      <point x="1194" y="170" type="line"/>
      <point x="1194" y="1" type="line"/>
      <point x="1608" y="1" type="line"/>
      <point x="1608" y="170" type="line"/>
      <point x="1536" y="170" type="line"/>
    </contour>
    <contour>
      <point x="1157" y="399" type="line"/>
      <point x="1268" y="536" type="line"/>
      <point x="1268" y="398" type="line"/>
    </contour>
  </outline>
</glyph>
<glyph name="questiondown" format="1">
  <advance width="1312"/>
  <unicode hex="00BF"/>
  <outline>
    <contour>
      <point x="962" y="1180" type="line"/>
      <point x="615" y="1180" type="line"/>
      <point x="615" y="993" type="line"/>
      <point x="554" y="972"/>
      <point x="461" y="935"/>
      <point x="338" y="876"/>
      <point x="247" y="816"/>
      <point x="152" y="730"/>
      <point x="92" y="637"/>
      <point x="53" y="515"/>
      <point x="53" y="447" type="qcurve"/>
      <point x="53" y="315"/>
      <point x="209" y="102"/>
      <point x="484" y="-18"/>
      <point x="653" y="-18" type="qcurve"/>
      <point x="910" y="-18"/>
      <point x="1249" y="274"/>
      <point x="1263" y="500" type="qcurve"/>
      <point x="791" y="500" type="line"/>
      <point x="781" y="338"/>
      <point x="661" y="338" type="qcurve"/>
      <point x="631" y="338"/>
      <point x="589" y="369"/>
      <point x="572" y="417"/>
      <point x="565" y="454"/>
      <point x="565" y="470" type="qcurve"/>
      <point x="565" y="649"/>
      <point x="961" y="828" type="qcurve"/>
    </contour>
    <contour>
      <point x="782" y="1746" type="qcurve"/>
      <point x="901" y="1746"/>
      <point x="1059" y="1611"/>
      <point x="1059" y="1496" type="qcurve"/>
      <point x="1059" y="1383"/>
      <point x="904" y="1251"/>
      <point x="782" y="1251" type="qcurve"/>
      <point x="655" y="1251"/>
      <point x="495" y="1383"/>
      <point x="495" y="1496" type="qcurve"/>
      <point x="495" y="1611"/>
      <point x="660" y="1746"/>
    </contour>
  </outline>
</glyph>
<glyph name="Adieresis" format="1">
  <advance width="1643"/>
  <unicode hex="00C4"/>
  <outline>
    <contour>
      <point x="1185" y="1623" type="line"/>
      <point x="191" y="1623" type="line"/>
      <point x="191" y="1270" type="line"/>
      <point x="403" y="1270" type="line"/>
      <point x="231" y="591" type="line"/>
      <point x="204" y="486"/>
      <point x="193" y="462" type="qcurve"/>
      <point x="160" y="386"/>
      <point x="82" y="367" type="qcurve"/>
      <point x="48" y="359"/>
      <point x="4" y="359" type="qcurve"/>
      <point x="4" y="0" type="line"/>
      <point x="682" y="0" type="line"/>
      <point x="682" y="359" type="line"/>
      <point x="598" y="359" type="line"/>
      <point x="577" y="359"/>
      <point x="555" y="431"/>
      <point x="555" y="459" type="qcurve"/>
      <point x="556" y="480"/>
      <point x="558" y="502"/>
      <point x="572" y="523"/>
      <point x="585" y="523" type="qcurve"/>
      <point x="860" y="523" type="line"/>
      <point x="927" y="523"/>
      <point x="927" y="359" type="qcurve"/>
      <point x="807" y="359" type="line"/>
      <point x="808" y="0" type="line"/>
      <point x="1634" y="0" type="line"/>
      <point x="1634" y="359" type="line"/>
      <point x="1548" y="359" type="line"/>
      <point x="1533" y="359"/>
      <point x="1511" y="384"/>
      <point x="1500" y="416"/>
      <point x="1492" y="447" type="qcurve"/>
    </contour>
    <contour>
      <point x="612" y="773" type="line"/>
      <point x="724" y="1281" type="line"/>
      <point x="841" y="773" type="line"/>
    </contour>
    <contour>
      <point x="711" y="1904" type="qcurve"/>
      <point x="711" y="1796"/>
      <point x="578" y="1674"/>
      <point x="487" y="1674" type="qcurve"/>
      <point x="394" y="1674"/>
      <point x="259" y="1797"/>
      <point x="259" y="1907" type="qcurve"/>
      <point x="259" y="2014"/>
      <point x="393" y="2134"/>
      <point x="577" y="2134"/>
      <point x="711" y="2013"/>
    </contour>
    <contour>
      <point x="1328" y="1904" type="qcurve"/>
      <point x="1328" y="1796"/>
      <point x="1195" y="1674"/>
      <point x="1104" y="1674" type="qcurve"/>
      <point x="1011" y="1674"/>
      <point x="876" y="1797"/>
      <point x="876" y="1907" type="qcurve"/>
      <point x="876" y="2014"/>
      <point x="1010" y="2134"/>
      <point x="1194" y="2134"/>
      <point x="1328" y="2013"/>
    </contour>
  </outline>
</glyph>
<glyph name="Aring" format="1">
  <advance width="1643"/>
  <unicode hex="00C5"/>
  <outline>
    <contour>
      <point x="1185" y="1623" type="line"/>
      <point x="191" y="1623" type="line"/>
      <point x="191" y="1270" type="line"/>
      <point x="403" y="1270" type="line"/>
      <point x="231" y="591" type="line"/>
      <point x="204" y="486"/>
      <point x="193" y="462" type="qcurve"/>
      <point x="160" y="386"/>
      <point x="82" y="367" type="qcurve"/>
      <point x="48" y="359"/>
      <point x="4" y="359" type="qcurve"/>
      <point x="4" y="0" type="line"/>
      <point x="682" y="0" type="line"/>
      <point x="682" y="359" type="line"/>
      <point x="598" y="359" type="line"/>
      <point x="577" y="359"/>
      <point x="555" y="431"/>
      <point x="555" y="459" type="qcurve"/>
      <point x="556" y="480"/>
      <point x="558" y="502"/>
      <point x="572" y="523"/>
      <point x="585" y="523" type="qcurve"/>
      <point x="860" y="523" type="line"/>
      <point x="927" y="523"/>
      <point x="927" y="359" type="qcurve"/>
      <point x="807" y="359" type="line"/>
      <point x="808" y="0" type="line"/>
      <point x="1634" y="0" type="line"/>
      <point x="1634" y="359" type="line"/>
      <point x="1548" y="359" type="line"/>
      <point x="1533" y="359"/>
      <point x="1511" y="384"/>
      <point x="1500" y="416"/>
      <point x="1492" y="447" type="qcurve"/>
    </contour>
    <contour>
      <point x="612" y="773" type="line"/>
      <point x="724" y="1281" type="line"/>
      <point x="841" y="773" type="line"/>
    </contour>
    <contour>
      <point x="789" y="1802" type="qcurve"/>
      <point x="714" y="1802"/>
      <point x="628" y="1890"/>
      <point x="628" y="1950" type="qcurve"/>
      <point x="628" y="2009"/>
      <point x="713" y="2095"/>
      <point x="789" y="2095" type="qcurve"/>
      <point x="867" y="2095"/>
      <point x="954" y="2009"/>
      <point x="954" y="1950" type="qcurve"/>
      <point x="954" y="1890"/>
      <point x="866" y="1802"/>
    </contour>
    <contour>
      <point x="789" y="1700" type="qcurve"/>
      <point x="920" y="1700"/>
      <point x="1069" y="1850"/>
      <point x="1069" y="1951" type="qcurve"/>
      <point x="1069" y="2051"/>
      <point x="922" y="2195"/>
      <point x="789" y="2195" type="qcurve"/>
      <point x="660" y="2195"/>
      <point x="518" y="2050"/>
      <point x="518" y="1951" type="qcurve"/>
      <point x="518" y="1850"/>
      <point x="662" y="1700"/>
    </contour>
  </outline>
</glyph>
<glyph name="Ccedilla" format="1">
  <advance width="1542"/>
  <unicode hex="00C7"/>
  <outline>
    <contour>
      <point x="1458" y="612" type="line"/>
      <point x="1157" y="612" type="line"/>
      <point x="1153" y="538"/>
      <point x="1149" y="518" type="qcurve"/>
      <point x="1134" y="438"/>
      <point x="1011" y="343"/>
      <point x="930" y="343" type="qcurve"/>
      <point x="869" y="343"/>
      <point x="777" y="387"/>
      <point x="726" y="461"/>
      <point x="691" y="557"/>
      <point x="683" y="661"/>
      <point x="677" y="766"/>
      <point x="680" y="811" type="qcurve"/>
      <point x="680" y="841"/>
      <point x="680" y="855" type="qcurve"/>
      <point x="680" y="902"/>
      <point x="682" y="968"/>
      <point x="692" y="1066"/>
      <point x="710" y="1135"/>
      <point x="746" y="1211"/>
      <point x="795" y="1259"/>
      <point x="870" y="1290"/>
      <point x="917" y="1290" type="qcurve"/>
      <point x="980" y="1290"/>
      <point x="1076" y="1235"/>
      <point x="1128" y="1145"/>
      <point x="1152" y="1044"/>
      <point x="1151" y="991" type="qcurve"/>
      <point x="1449" y="991" type="line"/>
      <point x="1448" y="1623" type="line"/>
      <point x="1137" y="1623" type="line"/>
      <point x="1103" y="1552" type="line"/>
      <point x="1058" y="1595"/>
      <point x="923" y="1642"/>
      <point x="817" y="1652"/>
      <point x="743" y="1652" type="qcurve"/>
      <point x="602" y="1652"/>
      <point x="370" y="1554"/>
      <point x="214" y="1390"/>
      <point x="107" y="1169"/>
      <point x="59" y="931"/>
      <point x="59" y="804" type="qcurve"/>
      <point x="59" y="552"/>
      <point x="230" y="181"/>
      <point x="579" y="-29"/>
      <point x="827" y="-29" type="qcurve"/>
      <point x="931" y="-29"/>
      <point x="1138" y="19"/>
      <point x="1284" y="86"/>
      <point x="1400" y="154"/>
      <point x="1429" y="178" type="qcurve"/>
      <point x="1458" y="202" type="line"/>
    </contour>
    <contour>
      <point x="709" y="-119" type="line"/>
      <point x="755" y="-145"/>
      <point x="819" y="-231"/>
      <point x="819" y="-271" type="qcurve"/>
      <point x="819" y="-315"/>
      <point x="729" y="-371"/>
      <point x="632" y="-372" type="qcurve"/>
      <point x="632" y="-485" type="line"/>
      <point x="653" y="-485" type="line"/>
      <point x="805" y="-485"/>
      <point x="1022" y="-367"/>
      <point x="1022" y="-285" type="qcurve"/>
      <point x="1022" y="-196"/>
      <point x="889" y="-119" type="qcurve"/>
      <point x="889" y="0" type="line"/>
      <point x="709" y="0" type="line"/>
    </contour>
  </outline>
</glyph>
<glyph name="Ecircumflex" format="1">
  <advance width="1490"/>
  <unicode hex="00CA"/>
  <outline>
    <contour>
      <point x="1367" y="969" type="line"/>
      <point x="1367" y="1623" type="line"/>
      <point x="99" y="1623" type="line"/>
      <point x="99" y="1270" type="line"/>
      <point x="257" y="1270" type="line"/>
      <point x="257" y="359" type="line"/>
      <point x="99" y="359" type="line"/>
      <point x="99" y="0" type="line"/>
      <point x="1378" y="0" type="line"/>
      <point x="1378" y="687" type="line"/>
      <point x="1105" y="687" type="line"/>
      <point x="1042" y="420" type="line"/>
      <point x="1029" y="359" type="line"/>
      <point x="810" y="359" type="line"/>
      <point x="810" y="636" type="line"/>
      <point x="1015" y="636" type="line"/>
      <point x="1015" y="988" type="line"/>
      <point x="810" y="988" type="line"/>
      <point x="810" y="1270" type="line"/>
      <point x="1023" y="1270" type="line"/>
      <point x="1099" y="968" type="line"/>
    </contour>
    <contour>
      <point x="600" y="2163" type="line"/>
      <point x="327" y="1786" type="line"/>
      <point x="481" y="1685" type="line"/>
      <point x="736" y="1930" type="line"/>
      <point x="991" y="1685" type="line"/>
      <point x="1145" y="1786" type="line"/>
      <point x="871" y="2162" type="line"/>
    </contour>
  </outline>
</glyph>
<glyph name="Igrave" format="1">
  <advance width="1076"/>
  <unicode hex="00CC"/>
  <outline>
    <contour>
      <point x="972" y="1623" type="line"/>
      <point x="108" y="1623" type="line"/>
      <point x="108" y="1270" type="line"/>
      <point x="251" y="1270" type="line"/>
      <point x="251" y="359" type="line"/>
      <point x="104" y="359" type="line"/>
      <point x="104" y="0" type="line"/>
      <point x="966" y="0" type="line"/>
      <point x="966" y="359" type="line"/>
      <point x="825" y="359" type="line"/>
      <point x="825" y="1270" type="line"/>
      <point x="972" y="1270" type="line"/>
    </contour>
    <contour>
      <point x="395" y="2270" type="line"/>
      <point x="869" y="1833" type="line"/>
      <point x="765" y="1692" type="line"/>
      <point x="211" y="2005" type="line"/>
    </contour>
  </outline>
</glyph>
<glyph name="Idieresis" format="1">
  <advance width="1076"/>
  <unicode hex="00CF"/>
  <outline>
    <contour>
      <point x="972" y="1623" type="line"/>
      <point x="108" y="1623" type="line"/>
      <point x="108" y="1270" type="line"/>
      <point x="251" y="1270" type="line"/>
      <point x="251" y="359" type="line"/>
      <point x="104" y="359" type="line"/>
      <point x="104" y="0" type="line"/>
      <point x="966" y="0" type="line"/>
      <point x="966" y="359" type="line"/>
      <point x="825" y="359" type="line"/>
      <point x="825" y="1270" type="line"/>
      <point x="972" y="1270" type="line"/>
    </contour>
    <contour>
      <point x="458" y="1904" type="qcurve"/>
      <point x="458" y="1796"/>
      <point x="325" y="1674"/>
      <point x="234" y="1674" type="qcurve"/>
      <point x="141" y="1674"/>
      <point x="6" y="1797"/>
      <point x="6" y="1907" type="qcurve"/>
      <point x="6" y="2014"/>
      <point x="140" y="2134"/>
      <point x="324" y="2134"/>
      <point x="458" y="2013"/>
    </contour>
    <contour>
      <point x="1075" y="1904" type="qcurve"/>
      <point x="1075" y="1796"/>
      <point x="942" y="1674"/>
      <point x="851" y="1674" type="qcurve"/>
      <point x="758" y="1674"/>
      <point x="623" y="1797"/>
      <point x="623" y="1907" type="qcurve"/>
      <point x="623" y="2014"/>
      <point x="757" y="2134"/>
      <point x="941" y="2134"/>
      <point x="1075" y="2013"/>
    </contour>
  </outline>
</glyph>
<glyph name="Oslash" format="1">
  <advance width="1742"/>
  <unicode hex="00D8"/>
  <outline>
    <contour>
      <point x="567" y="-155" type="line"/>
      <point x="605" y="12" type="line"/>
      <point x="356" y="94"/>
      <point x="51" y="525"/>
      <point x="51" y="808" type="qcurve"/>
      <point x="51" y="1066"/>
      <point x="266" y="1453"/>
      <point x="635" y="1653"/>
      <point x="871" y="1653" type="qcurve"/>
      <point x="919" y="1653"/>
      <point x="982" y="1646" type="qcurve"/>
      <point x="1019" y="1804" type="line"/>
      <point x="1172" y="1774" type="line"/>
      <point x="1136" y="1616" type="line"/>
      <point x="1390" y="1541"/>
      <point x="1691" y="1118"/>
      <point x="1691" y="808" type="qcurve"/>
      <point x="1691" y="573"/>
      <point x="1476" y="189"/>
      <point x="1100" y="-29"/>
      <point x="871" y="-29" type="qcurve"/>
      <point x="818" y="-29"/>
      <point x="767" y="-23" type="qcurve"/>
      <point x="729" y="-194" type="line"/>
    </contour>
    <contour>
      <point x="871" y="1296" type="qcurve"/>
      <point x="832" y="1296"/>
      <point x="769" y="1272"/>
      <point x="727" y="1229"/>
      <point x="694" y="1172"/>
      <point x="677" y="1105"/>
      <point x="664" y="1032"/>
      <point x="662" y="959"/>
      <point x="659" y="889"/>
      <point x="661" y="858" type="qcurve"/>
      <point x="661" y="834"/>
      <point x="661" y="823" type="qcurve"/>
      <point x="661" y="822"/>
      <point x="661" y="730"/>
      <point x="661" y="706"/>
      <point x="663" y="622"/>
      <point x="669" y="580"/>
      <point x="678" y="513"/>
      <point x="693" y="461"/>
      <point x="703" y="438" type="qcurve"/>
      <point x="901" y="1294" type="line"/>
      <point x="881" y="1296"/>
    </contour>
    <contour>
      <point x="871" y="319" type="qcurve"/>
      <point x="910" y="319"/>
      <point x="972" y="345"/>
      <point x="1015" y="391"/>
      <point x="1047" y="453"/>
      <point x="1065" y="526"/>
      <point x="1077" y="604"/>
      <point x="1080" y="683"/>
      <point x="1082" y="759"/>
      <point x="1081" y="793" type="qcurve"/>
      <point x="1081" y="813"/>
      <point x="1081" y="823" type="qcurve"/>
      <point x="1081" y="830"/>
      <point x="1082" y="904"/>
      <point x="1081" y="936"/>
      <point x="1079" y="1007"/>
      <point x="1073" y="1052"/>
      <point x="1064" y="1112"/>
      <point x="1049" y="1163"/>
      <point x="1039" y="1185" type="qcurve"/>
      <point x="845" y="320" type="line"/>
      <point x="853" y="319"/>
    </contour>
  </outline>
</glyph>
<glyph name="Udieresis" format="1">
  <advance width="1683"/>
  <unicode hex="00DC"/>
  <outline>
    <contour>
      <point x="1485" y="1270" type="line"/>
      <point x="1639" y="1270" type="line"/>
      <point x="1639" y="1622" type="line"/>
      <point x="985" y="1622" type="line"/>
      <point x="985" y="1270" type="line"/>
      <point x="1149" y="1270" type="line"/>
      <point x="1149" y="536" type="line"/>
      <point x="1149" y="448"/>
      <point x="1045" y="346"/>
      <point x="953" y="346" type="qcurve"/>
      <point x="901" y="346"/>
      <point x="824" y="390"/>
      <point x="783" y="465"/>
      <point x="764" y="551"/>
      <point x="764" y="600" type="qcurve"/>
      <point x="764" y="1270" type="line"/>
      <point x="912" y="1270" type="line"/>
      <point x="912" y="1622" type="line"/>
      <point x="43" y="1622" type="line"/>
      <point x="43" y="1270" type="line"/>
      <point x="204" y="1270" type="line"/>
      <point x="204" y="704" type="line"/>
      <point x="204" y="616"/>
      <point x="219" y="466"/>
      <point x="258" y="314"/>
      <point x="320" y="192"/>
      <point x="418" y="84"/>
      <point x="547" y="12"/>
      <point x="725" y="-29"/>
      <point x="834" y="-29" type="qcurve"/>
      <point x="1005" y="-29"/>
      <point x="1301" y="107"/>
      <point x="1485" y="362"/>
      <point x="1485" y="520" type="qcurve"/>
    </contour>
    <contour>
      <point x="758" y="1904" type="qcurve"/>
      <point x="758" y="1796"/>
      <point x="625" y="1674"/>
      <point x="534" y="1674" type="qcurve"/>
      <point x="441" y="1674"/>
      <point x="306" y="1797"/>
      <point x="306" y="1907" type="qcurve"/>
      <point x="306" y="2014"/>
      <point x="440" y="2134"/>
      <point x="624" y="2134"/>
      <point x="758" y="2013"/>
    </contour>
    <contour>
      <point x="1375" y="1904" type="qcurve"/>
      <point x="1375" y="1796"/>
      <point x="1242" y="1674"/>
      <point x="1151" y="1674" type="qcurve"/>
      <point x="1058" y="1674"/>
      <point x="923" y="1797"/>
      <point x="923" y="1907" type="qcurve"/>
      <point x="923" y="2014"/>
      <point x="1057" y="2134"/>
      <point x="1241" y="2134"/>
      <point x="1375" y="2013"/>
    </contour>
  </outline>
</glyph>
<glyph name="ae" format="1">
  <advance width="1911"/>
  <unicode hex="00E6"/>
  <outline>
    <contour>
      <point x="30" y="299" type="qcurve"/>
      <point x="30" y="199"/>
      <point x="140" y="49"/>
      <point x="314" y="-26"/>
      <point x="419" y="-27" type="qcurve"/>
      <point x="615" y="-29"/>
      <point x="864" y="29"/>
      <point x="967" y="105" type="qcurve"/>
      <point x="1110" y="-25"/>
      <point x="1299" y="-25" type="qcurve"/>
      <point x="1459" y="-25"/>
      <point x="1714" y="41"/>
      <point x="1846" y="120" type="qcurve"/>
      <point x="1846" y="358" type="line"/>
      <point x="1539" y="358" type="line"/>
      <point x="1537" y="285"/>
      <point x="1471" y="215"/>
      <point x="1399" y="215" type="qcurve"/>
      <point x="1317" y="215"/>
      <point x="1222" y="348"/>
      <point x="1222" y="441" type="qcurve"/>
      <point x="1824" y="441" type="line"/>
      <point x="1843" y="441"/>
      <point x="1852" y="448"/>
      <point x="1861" y="469" type="qcurve"/>
      <point x="1866" y="514"/>
      <point x="1866" y="548" type="qcurve"/>
      <point x="1866" y="698"/>
      <point x="1741" y="938"/>
      <point x="1487" y="1085"/>
      <point x="1315" y="1085" type="qcurve"/>
      <point x="1252" y="1085"/>
      <point x="1135" y="1059"/>
      <point x="1058" y="1023"/>
      <point x="998" y="987"/>
      <point x="985" y="974" type="qcurve"/>
      <point x="971" y="961" type="line"/>
      <point x="966" y="966"/>
      <point x="946" y="982"/>
      <point x="877" y="1024"/>
      <point x="799" y="1057"/>
      <point x="671" y="1083"/>
      <point x="603" y="1083" type="qcurve"/>
      <point x="496" y="1083"/>
      <point x="254" y="1048"/>
      <point x="187" y="1030" type="qcurve"/>
      <point x="120" y="1013" type="line"/>
      <point x="120" y="699" type="line"/>
      <point x="295" y="699" type="line"/>
      <point x="367" y="794"/>
      <point x="510" y="794" type="qcurve"/>
      <point x="721" y="794"/>
      <point x="721" y="628" type="qcurve"/>
      <point x="721" y="583" type="line"/>
      <point x="611" y="621"/>
      <point x="465" y="621" type="qcurve"/>
      <point x="382" y="621"/>
      <point x="229" y="580"/>
      <point x="105" y="502"/>
      <point x="30" y="376"/>
    </contour>
    <contour>
      <point x="520" y="317" type="qcurve"/>
      <point x="520" y="360"/>
      <point x="582" y="429"/>
      <point x="625" y="429" type="qcurve"/>
      <point x="647" y="429"/>
      <point x="696" y="418"/>
      <point x="710" y="413" type="qcurve"/>
      <point x="724" y="408" type="line"/>
      <point x="724" y="261" type="line"/>
      <point x="720" y="256"/>
      <point x="704" y="241"/>
      <point x="648" y="215"/>
      <point x="616" y="215" type="qcurve"/>
      <point x="572" y="215"/>
      <point x="520" y="272"/>
    </contour>
    <contour>
      <point x="1224" y="649" type="line"/>
      <point x="1224" y="710"/>
      <point x="1278" y="807"/>
      <point x="1332" y="807" type="qcurve"/>
      <point x="1369" y="807"/>
      <point x="1417" y="772"/>
      <point x="1435" y="707"/>
      <point x="1440" y="655"/>
      <point x="1439" y="620" type="qcurve"/>
      <point x="1224" y="620" type="line"/>
    </contour>
  </outline>
</glyph>
<glyph name="eacute" format="1">
  <advance width="1224"/>
  <unicode hex="00E9"/>
  <outline>
    <contour>
      <point x="611" y="-18" type="qcurve"/>
      <point x="771" y="-18"/>
      <point x="1026" y="48"/>
      <point x="1158" y="127" type="qcurve"/>
      <point x="1158" y="365" type="line"/>
      <point x="851" y="365" type="line"/>
      <point x="849" y="292"/>
      <point x="783" y="222"/>
      <point x="711" y="222" type="qcurve"/>
      <point x="629" y="222"/>
      <point x="534" y="355"/>
      <point x="534" y="448" type="qcurve"/>
      <point x="1136" y="448" type="line"/>
      <point x="1155" y="448"/>
      <point x="1164" y="455"/>
      <point x="1173" y="476" type="qcurve"/>
      <point x="1178" y="521"/>
      <point x="1178" y="555" type="qcurve"/>
      <point x="1178" y="705"/>
      <point x="1053" y="945"/>
      <point x="799" y="1092"/>
      <point x="627" y="1092" type="qcurve"/>
      <point x="447" y="1092"/>
      <point x="178" y="943"/>
      <point x="40" y="686"/>
      <point x="40" y="521" type="qcurve"/>
      <point x="40" y="374"/>
      <point x="186" y="128"/>
      <point x="449" y="-18"/>
    </contour>
    <contour>
      <point x="536" y="656" type="line"/>
      <point x="536" y="717"/>
      <point x="590" y="814"/>
      <point x="644" y="814" type="qcurve"/>
      <point x="681" y="814"/>
      <point x="729" y="779"/>
      <point x="747" y="714"/>
      <point x="752" y="662"/>
      <point x="751" y="627" type="qcurve"/>
      <point x="536" y="627" type="line"/>
    </contour>
    <contour>
      <point x="750" y="1708" type="line"/>
      <point x="276" y="1271" type="line"/>
      <point x="380" y="1130" type="line"/>
      <point x="934" y="1443" type="line"/>
    </contour>
  </outline>
</glyph>
<glyph name="ecircumflex" format="1">
  <advance width="1224"/>
  <unicode hex="00EA"/>
  <outline>
    <contour>
      <point x="611" y="-18" type="qcurve"/>
      <point x="771" y="-18"/>
      <point x="1026" y="48"/>
      <point x="1158" y="127" type="qcurve"/>
      <point x="1158" y="365" type="line"/>
      <point x="851" y="365" type="line"/>
      <point x="849" y="292"/>
      <point x="783" y="222"/>
      <point x="711" y="222" type="qcurve"/>
      <point x="629" y="222"/>
      <point x="534" y="355"/>
      <point x="534" y="448" type="qcurve"/>
      <point x="1136" y="448" type="line"/>
      <point x="1155" y="448"/>
      <point x="1164" y="455"/>
      <point x="1173" y="476" type="qcurve"/>
      <point x="1178" y="521"/>
      <point x="1178" y="555" type="qcurve"/>
      <point x="1178" y="705"/>
      <point x="1053" y="945"/>
      <point x="799" y="1092"/>
      <point x="627" y="1092" type="qcurve"/>
      <point x="447" y="1092"/>
      <point x="178" y="943"/>
      <point x="40" y="686"/>
      <point x="40" y="521" type="qcurve"/>
      <point x="40" y="374"/>
      <point x="186" y="128"/>
      <point x="449" y="-18"/>
    </contour>
    <contour>
      <point x="536" y="656" type="line"/>
      <point x="536" y="717"/>
      <point x="590" y="814"/>
      <point x="644" y="814" type="qcurve"/>
      <point x="681" y="814"/>
      <point x="729" y="779"/>
      <point x="747" y="714"/>
      <point x="752" y="662"/>
      <point x="751" y="627" type="qcurve"/>
      <point x="536" y="627" type="line"/>
    </contour>
    <contour>
      <point x="469" y="1601" type="line"/>
      <point x="196" y="1224" type="line"/>
      <point x="350" y="1123" type="line"/>
      <point x="605" y="1368" type="line"/>
      <point x="860" y="1123" type="line"/>
      <point x="1014" y="1224" type="line"/>
      <point x="740" y="1600" type="line"/>
    </contour>
  </outline>
</glyph>
<glyph name="iacute" format="1">
  <advance width="814"/>
  <unicode hex="00ED"/>
  <outline>
    <contour>
      <point x="560" y="1708" type="line"/>
      <point x="86" y="1271" type="line"/>
      <point x="190" y="1130" type="line"/>
      <point x="744" y="1443" type="line"/>
    </contour>
    <contour>
      <point x="661" y="1072" type="line"/>
      <point x="91" y="1072" type="line"/>
      <point x="91" y="747" type="line"/>
      <point x="180" y="747" type="line"/>
      <point x="180" y="299" type="line"/>
      <point x="98" y="299" type="line"/>
      <point x="98" y="0" type="line"/>
      <point x="745" y="0" type="line"/>
      <point x="745" y="299" type="line"/>
      <point x="661" y="299" type="line"/>
    </contour>
  </outline>
</glyph>
<glyph name="divide" format="1">
  <advance width="920"/>
  <unicode hex="00F7"/>
  <outline>
    <contour>
      <point x="68" y="761" type="line"/>
      <point x="68" y="538" type="line"/>
      <point x="842" y="538" type="line"/>
      <point x="842" y="761" type="line"/>
    </contour>
    <contour>
      <point x="471" y="-18" type="qcurve"/>
      <point x="373" y="-18"/>
      <point x="243" y="93"/>
      <point x="243" y="188" type="qcurve"/>
      <point x="243" y="280"/>
      <point x="370" y="389"/>
      <point x="471" y="389" type="qcurve"/>
      <point x="575" y="389"/>
      <point x="707" y="280"/>
      <point x="707" y="188" type="qcurve"/>
      <point x="707" y="93"/>
      <point x="571" y="-18"/>
    </contour>
    <contour>
      <point x="471" y="886" type="qcurve"/>
      <point x="373" y="886"/>
      <point x="243" y="997"/>
      <point x="243" y="1092" type="qcurve"/>
      <point x="243" y="1184"/>
      <point x="370" y="1293"/>
      <point x="471" y="1293" type="qcurve"/>
      <point x="575" y="1293"/>
      <point x="707" y="1184"/>
      <point x="707" y="1092" type="qcurve"/>
      <point x="707" y="997"/>
      <point x="571" y="886"/>
    </contour>
  </outline>
</glyph>
<glyph name="ugrave" format="1">
  <advance width="1466"/>
  <unicode hex="00F9"/>
  <outline>
    <contour>
      <point x="822" y="0" type="line"/>
      <point x="1392" y="0" type="line"/>
      <point x="1392" y="305" type="line"/>
      <point x="1316" y="305" type="line"/>
      <point x="1316" y="1072" type="line"/>
      <point x="741" y="1072" type="line"/>
      <point x="741" y="761" type="line"/>
      <point x="822" y="761" type="line"/>
      <point x="822" y="438" type="line"/>
      <point x="822" y="387"/>
      <point x="765" y="318"/>
      <point x="718" y="318" type="qcurve"/>
      <point x="682" y="318"/>
      <point x="628" y="385"/>
      <point x="628" y="438" type="qcurve"/>
      <point x="628" y="1072" type="line"/>
      <point x="54" y="1072" type="line"/>
      <point x="54" y="761" type="line"/>
      <point x="134" y="761" type="line"/>
      <point x="134" y="385" type="line"/>
      <point x="134" y="-18"/>
      <point x="464" y="-18" type="qcurve"/>
      <point x="582" y="-18"/>
      <point x="767" y="71"/>
      <point x="822" y="156" type="qcurve"/>
    </contour>
    <contour>
      <point x="584" y="1708" type="line"/>
      <point x="1058" y="1271" type="line"/>
      <point x="954" y="1130" type="line"/>
      <point x="400" y="1443" type="line"/>
    </contour>
  </outline>
</glyph>
<glyph name="ucircumflex" format="1">
  <advance width="1466"/>
  <unicode hex="00FB"/>
  <outline>
    <contour>
      <point x="822" y="0" type="line"/>
      <point x="1392" y="0" type="line"/>
      <point x="1392" y="305" type="line"/>
      <point x="1316" y="305" type="line"/>
      <point x="1316" y="1072" type="line"/>
      <point x="741" y="1072" type="line"/>
      <point x="741" y="761" type="line"/>
      <point x="822" y="761" type="line"/>
      <point x="822" y="438" type="line"/>
      <point x="822" y="387"/>
      <point x="765" y="318"/>
      <point x="718" y="318" type="qcurve"/>
      <point x="682" y="318"/>
      <point x="628" y="385"/>
      <point x="628" y="438" type="qcurve"/>
      <point x="628" y="1072" type="line"/>
      <point x="54" y="1072" type="line"/>
      <point x="54" y="761" type="line"/>
      <point x="134" y="761" type="line"/>
      <point x="134" y="385" type="line"/>
      <point x="134" y="-18"/>
      <point x="464" y="-18" type="qcurve"/>
      <point x="582" y="-18"/>
      <point x="767" y="71"/>
      <point x="822" y="156" type="qcurve"/>
    </contour>
    <contour>
      <point x="593" y="1601" type="line"/>
      <point x="320" y="1224" type="line"/>
      <point x="474" y="1123" type="line"/>
      <point x="729" y="1368" type="line"/>
      <point x="984" y="1123" type="line"/>
      <point x="1138" y="1224" type="line"/>
      <point x="864" y="1600" type="line"/>
    </contour>
  </outline>
</glyph>
<glyph name="yacute" format="1">
  <advance width="1377"/>
  <unicode hex="00FD"/>
  <outline>
    <contour>
      <point x="360" y="-377" type="line"/>
      <point x="1051" y="-377" type="line"/>
      <point x="1051" y="-82" type="line"/>
      <point x="819" y="-82" type="line"/>
      <point x="1197" y="628" type="line"/>
      <point x="1218" y="668"/>
      <point x="1238" y="701"/>
      <point x="1280" y="745"/>
      <point x="1334" y="761"/>
      <point x="1373" y="761" type="qcurve"/>
      <point x="1373" y="1072" type="line"/>
      <point x="793" y="1072" type="line"/>
      <point x="793" y="761" type="line"/>
      <point x="863" y="761"/>
      <point x="883" y="751" type="qcurve"/>
      <point x="920" y="731"/>
      <point x="888" y="662" type="qcurve"/>
      <point x="791" y="454" type="line"/>
      <point x="615" y="761" type="line"/>
      <point x="683" y="761" type="line"/>
      <point x="683" y="1072" type="line"/>
      <point x="3" y="1072" type="line"/>
      <point x="3" y="761" type="line"/>
      <point x="91" y="761" type="line"/>
      <point x="557" y="31" type="line"/>
    </contour>
    <contour>
      <point x="832" y="1708" type="line"/>
      <point x="358" y="1271" type="line"/>
      <point x="462" y="1130" type="line"/>
      <point x="1016" y="1443" type="line"/>
    </contour>
  </outline>
</glyph>
<glyph name="dotlessi" format="1">
  <advance width="814"/>
  <unicode hex="0131"/>
  <outline>
    <contour>
      <point x="661" y="1072" type="line"/>
      <point x="91" y="1072" type="line"/>
      <point x="91" y="747" type="line"/>
      <point x="180" y="747" type="line"/>
      <point x="180" y="299" type="line"/>
      <point x="98" y="299" type="line"/>
      <point x="98" y="0" type="line"/>
      <point x="745" y="0" type="line"/>
      <point x="745" y="299" type="line"/>
      <point x="661" y="299" type="line"/>
    </contour>
  </outline>
</glyph>
<glyph name="Lslash" format="1">
  <advance width="1422"/>
  <unicode hex="0141"/>
  <outline>
    <contour>
      <point x="819" y="1270" type="line"/>
      <point x="973" y="1270" type="line"/>
      <point x="973" y="1622" type="line"/>
      <point x="105" y="1622" type="line"/>
      <point x="105" y="1270" type="line"/>
      <point x="252" y="1270" type="line"/>
      <point x="252" y="359" type="line"/>
      <point x="109" y="359" type="line"/>
      <point x="110" y="0" type="line"/>
      <point x="1383" y="0" type="line"/>
      <point x="1383" y="709" type="line"/>
      <point x="1097" y="709" type="line"/>
      <point x="1010" y="359" type="line"/>
      <point x="819" y="359" type="line"/>
    </contour>
    <contour>
      <point x="74" y="656" type="line"/>
      <point x="174" y="478" type="line"/>
      <point x="1042" y="981" type="line"/>
      <point x="943" y="1160" type="line"/>
    </contour>
  </outline>
</glyph>
<glyph name="OE" format="1">
  <advance width="2329"/>
  <unicode hex="0152"/>
  <outline>
    <contour>
      <point x="2216" y="0" type="line"/>
      <point x="2216" y="687" type="line"/>
      <point x="1943" y="687" type="line"/>
      <point x="1880" y="420" type="line"/>
      <point x="1867" y="350" type="line"/>
      <point x="1648" y="350" type="line"/>
      <point x="1648" y="636" type="line"/>
      <point x="1853" y="636" type="line"/>
      <point x="1853" y="988" type="line"/>
      <point x="1648" y="988" type="line"/>
      <point x="1648" y="1258" type="line"/>
      <point x="1861" y="1258" type="line"/>
      <point x="1937" y="956" type="line"/>
      <point x="2205" y="957" type="line"/>
      <point x="2205" y="1610" type="line"/>
      <point x="890" y="1610" type="line"/>
      <point x="644" y="1610"/>
      <point x="263" y="1403"/>
      <point x="56" y="1031"/>
      <point x="56" y="793" type="qcurve"/>
      <point x="57" y="433"/>
      <point x="514" y="0"/>
      <point x="896" y="0" type="qcurve"/>
    </contour>
    <contour>
      <point x="673" y="755" type="qcurve"/>
      <point x="673" y="775"/>
      <point x="673" y="817" type="qcurve"/>
      <point x="670" y="870"/>
      <point x="675" y="977"/>
      <point x="682" y="1075"/>
      <point x="711" y="1159"/>
      <point x="755" y="1221"/>
      <point x="833" y="1257"/>
      <point x="885" y="1257" type="qcurve"/>
      <point x="1095" y="1257" type="line"/>
      <point x="1095" y="350" type="line"/>
      <point x="896" y="350" type="line"/>
      <point x="852" y="350"/>
      <point x="783" y="374"/>
      <point x="737" y="412"/>
      <point x="704" y="477"/>
      <point x="686" y="539"/>
      <point x="676" y="630"/>
      <point x="673" y="703"/>
    </contour>
  </outline>
</glyph>
<glyph name="oe" format="1">
  <advance width="1927"/>
  <unicode hex="0153"/>
  <outline>
    <contour>
      <point x="646" y="-26" type="qcurve"/>
      <point x="468" y="-26"/>
      <point x="197" y="106"/>
      <point x="44" y="364"/>
      <point x="44" y="539" type="qcurve"/>
      <point x="44" y="799"/>
      <point x="366" y="1083"/>
      <point x="646" y="1083" type="qcurve"/>
      <point x="712" y="1083"/>
      <point x="834" y="1057"/>
      <point x="913" y="1021"/>
      <point x="974" y="985"/>
      <point x="988" y="972" type="qcurve"/>
      <point x="1002" y="959" type="line"/>
      <point x="1006" y="964"/>
      <point x="1022" y="981"/>
      <point x="1080" y="1024"/>
      <point x="1149" y="1056"/>
      <point x="1265" y="1083"/>
      <point x="1330" y="1083" type="qcurve"/>
      <point x="1502" y="1083"/>
      <point x="1756" y="936"/>
      <point x="1881" y="696"/>
      <point x="1881" y="546" type="qcurve"/>
      <point x="1881" y="512"/>
      <point x="1876" y="467" type="qcurve"/>
      <point x="1866" y="444"/>
      <point x="1860" y="441" type="qcurve"/>
      <point x="1855" y="439"/>
      <point x="1839" y="439" type="qcurve"/>
      <point x="1237" y="439" type="line"/>
      <point x="1237" y="346"/>
      <point x="1332" y="213"/>
      <point x="1414" y="213" type="qcurve"/>
      <point x="1486" y="213"/>
      <point x="1552" y="283"/>
      <point x="1554" y="356" type="qcurve"/>
      <point x="1861" y="356" type="line"/>
      <point x="1861" y="118" type="line"/>
      <point x="1728" y="38"/>
      <point x="1474" y="-28"/>
      <point x="1314" y="-27" type="qcurve"/>
      <point x="1255" y="-27"/>
      <point x="1146" y="2"/>
      <point x="1075" y="43"/>
      <point x="1021" y="84"/>
      <point x="1008" y="98" type="qcurve"/>
      <point x="996" y="113" type="line"/>
      <point x="991" y="107"/>
      <point x="973" y="89"/>
      <point x="908" y="41"/>
      <point x="833" y="4"/>
      <point x="712" y="-26"/>
    </contour>
    <contour>
      <point x="509" y="537" type="qcurve"/>
      <point x="509" y="326"/>
      <point x="783" y="326"/>
      <point x="783" y="537" type="qcurve"/>
      <point x="783" y="579"/>
      <point x="774" y="638"/>
      <point x="748" y="699"/>
      <point x="690" y="731"/>
      <point x="602" y="731"/>
      <point x="544" y="699"/>
      <point x="518" y="638"/>
      <point x="509" y="579"/>
    </contour>
    <contour>
      <point x="1239" y="647" type="qcurve"/>
      <point x="1239" y="618" type="line"/>
      <point x="1454" y="618" type="line"/>
      <point x="1455" y="653"/>
      <point x="1450" y="705"/>
      <point x="1432" y="770"/>
      <point x="1384" y="805"/>
      <point x="1347" y="805" type="qcurve"/>
      <point x="1293" y="805"/>
      <point x="1239" y="708"/>
    </contour>
  </outline>
</glyph>
<glyph name="tcommaaccent" format="1">
  <advance width="875"/>
  <unicode hex="0163"/>
  <outline>
    <contour>
      <point x="839" y="348" type="line"/>
      <point x="776" y="334"/>
      <point x="731" y="334" type="qcurve"/>
      <point x="675" y="334"/>
      <point x="633" y="399"/>
      <point x="633" y="438" type="qcurve"/>
      <point x="634" y="761" type="line"/>
      <point x="786" y="761" type="line"/>
      <point x="786" y="1072" type="line"/>
      <point x="634" y="1072" type="line"/>
      <point x="634" y="1406" type="line"/>
      <point x="147" y="1301" type="line"/>
      <point x="147" y="1072" type="line"/>
      <point x="44" y="1072" type="line"/>
      <point x="44" y="761" type="line"/>
      <point x="152" y="761" type="line"/>
      <point x="151" y="385" type="line"/>
      <point x="149" y="-18"/>
      <point x="531" y="-18" type="qcurve"/>
      <point x="611" y="-18"/>
      <point x="765" y="15"/>
      <point x="802" y="32" type="qcurve"/>
      <point x="839" y="49" type="line"/>
    </contour>
    <contour>
      <point x="240" y="-899" type="line"/>
      <point x="514" y="-899"/>
      <point x="774" y="-640"/>
      <point x="774" y="-362" type="qcurve"/>
      <point x="774" y="-239"/>
      <point x="750" y="-85" type="qcurve"/>
      <point x="240" y="-85" type="line"/>
      <point x="240" y="-451" type="line"/>
      <point x="429" y="-451" type="line"/>
      <point x="429" y="-493"/>
      <point x="427" y="-538"/>
      <point x="416" y="-598"/>
      <point x="392" y="-630"/>
      <point x="351" y="-661"/>
      <point x="285" y="-674"/>
      <point x="240" y="-674" type="qcurve"/>
    </contour>
  </outline>
</glyph>
<glyph name="zcaron" format="1">
  <advance width="1214"/>
  <unicode hex="017E"/>
  <outline>
    <contour>
      <point x="64" y="0" type="line"/>
      <point x="1149" y="0" type="line"/>
      <point x="1149" y="451" type="line"/>
      <point x="966" y="451" type="line"/>
      <point x="956" y="414"/>
      <point x="935" y="365"/>
      <point x="904" y="332"/>
      <point x="879" y="315"/>
      <point x="825" y="306"/>
      <point x="786" y="305"/>
      <point x="744" y="305" type="qcurve"/>
      <point x="643" y="305" type="line"/>
      <point x="643" y="316" type="line"/>
      <point x="1112" y="795" type="line"/>
      <point x="1112" y="1072" type="line"/>
      <point x="90" y="1072" type="line"/>
      <point x="90" y="636" type="line"/>
      <point x="287" y="636" type="line"/>
      <point x="287" y="659"/>
      <point x="294" y="695"/>
      <point x="312" y="721"/>
      <point x="329" y="740"/>
      <point x="364" y="751"/>
      <point x="388" y="758"/>
      <point x="438" y="760"/>
      <point x="468" y="761"/>
      <point x="498" y="761" type="qcurve"/>
      <point x="558" y="761" type="line"/>
      <point x="558" y="750" type="line"/>
      <point x="64" y="283" type="line"/>
    </contour>
    <contour>
      <point x="470" y="1149" type="line"/>
      <point x="197" y="1526" type="line"/>
      <point x="351" y="1627" type="line"/>
      <point x="606" y="1382" type="line"/>
      <point x="861" y="1627" type="line"/>
      <point x="1015" y="1526" type="line"/>
      <point x="741" y="1150" type="line"/>
    </contour>
  </outline>
</glyph>
<glyph name="florin" format="1">
  <advance width="891"/>
  <unicode hex="0192"/>
  <outline>
    <contour>
      <point x="682" y="761" type="qcurve"/>
      <point x="854" y="761" type="line"/>
      <point x="854" y="1072" type="line"/>
      <point x="675" y="1072" type="line"/>
      <point x="669" y="1180"/>
      <point x="722" y="1265"/>
      <point x="785" y="1265" type="qcurve"/>
      <point x="823" y="1265"/>
      <point x="881" y="1252" type="qcurve"/>
      <point x="881" y="1563" type="line"/>
      <point x="867" y="1568"/>
      <point x="814" y="1584"/>
      <point x="653" y="1610"/>
      <point x="573" y="1610" type="qcurve"/>
      <point x="193" y="1610"/>
      <point x="193" y="1207" type="qcurve"/>
      <point x="195" y="1075"/>
      <point x="195" y="1072" type="qcurve"/>
      <point x="112" y="1072" type="line"/>
      <point x="112" y="761" type="line"/>
      <point x="196" y="761" type="line"/>
      <point x="196" y="299" type="line"/>
      <point x="196" y="189"/>
      <point x="148" y="106"/>
      <point x="86" y="106" type="qcurve"/>
      <point x="49" y="106"/>
      <point x="-10" y="119" type="qcurve"/>
      <point x="-10" y="-192" type="line"/>
      <point x="4" y="-197"/>
      <point x="57" y="-213"/>
      <point x="218" y="-239"/>
      <point x="298" y="-239" type="qcurve"/>
      <point x="493" y="-239"/>
      <point x="684" y="-32"/>
      <point x="684" y="164" type="qcurve"/>
      <point x="682" y="297"/>
    </contour>
  </outline>
</glyph>
<glyph name="uni0206" format="1">
  <advance width="1490"/>
  <unicode hex="0206"/>
  <outline>
    <contour>
      <point x="1367" y="969" type="line"/>
      <point x="1367" y="1623" type="line"/>
      <point x="99" y="1623" type="line"/>
      <point x="99" y="1270" type="line"/>
      <point x="257" y="1270" type="line"/>
      <point x="257" y="359" type="line"/>
      <point x="99" y="359" type="line"/>
      <point x="99" y="0" type="line"/>
      <point x="1378" y="0" type="line"/>
      <point x="1378" y="687" type="line"/>
      <point x="1105" y="687" type="line"/>
      <point x="1042" y="420" type="line"/>
      <point x="1029" y="359" type="line"/>
      <point x="810" y="359" type="line"/>
      <point x="810" y="636" type="line"/>
      <point x="1015" y="636" type="line"/>
      <point x="1015" y="988" type="line"/>
      <point x="810" y="988" type="line"/>
      <point x="810" y="1270" type="line"/>
      <point x="1023" y="1270" type="line"/>
      <point x="1099" y="968" type="line"/>
    </contour>
    <contour>
      <point x="364" y="1699" type="qcurve"/>
      <point x="616" y="1699" type="line"/>
      <point x="616" y="1775"/>
      <point x="706" y="1860"/>
      <point x="830" y="1860"/>
      <point x="920" y="1775"/>
      <point x="920" y="1699" type="qcurve"/>
      <point x="1172" y="1699" type="line"/>
      <point x="1172" y="1782"/>
      <point x="1103" y="1916"/>
      <point x="988" y="1999"/>
      <point x="845" y="2043"/>
      <point x="691" y="2043"/>
      <point x="548" y="1999"/>
      <point x="433" y="1916"/>
      <point x="364" y="1782"/>
    </contour>
  </outline>
</glyph>
<glyph name="uni0207" format="1">
  <advance width="1224"/>
  <unicode hex="0207"/>
  <outline>
    <contour>
      <point x="611" y="-18" type="qcurve"/>
      <point x="771" y="-18"/>
      <point x="1026" y="48"/>
      <point x="1158" y="127" type="qcurve"/>
      <point x="1158" y="365" type="line"/>
      <point x="851" y="365" type="line"/>
      <point x="849" y="292"/>
      <point x="783" y="222"/>
      <point x="711" y="222" type="qcurve"/>
      <point x="629" y="222"/>
      <point x="534" y="355"/>
      <point x="534" y="448" type="qcurve"/>
      <point x="1136" y="448" type="line"/>
      <point x="1155" y="448"/>
      <point x="1164" y="455"/>
      <point x="1173" y="476" type="qcurve"/>
      <point x="1178" y="521"/>
      <point x="1178" y="555" type="qcurve"/>
      <point x="1178" y="705"/>
      <point x="1053" y="945"/>
      <point x="799" y="1092"/>
      <point x="627" y="1092" type="qcurve"/>
      <point x="447" y="1092"/>
      <point x="178" y="943"/>
      <point x="40" y="686"/>
      <point x="40" y="521" type="qcurve"/>
      <point x="40" y="374"/>
      <point x="186" y="128"/>
      <point x="449" y="-18"/>
    </contour>
    <contour>
      <point x="536" y="656" type="line"/>
      <point x="536" y="717"/>
      <point x="590" y="814"/>
      <point x="644" y="814" type="qcurve"/>
      <point x="681" y="814"/>
      <point x="729" y="779"/>
      <point x="747" y="714"/>
      <point x="752" y="662"/>
      <point x="751" y="627" type="qcurve"/>
      <point x="536" y="627" type="line"/>
    </contour>
    <contour>
      <point x="226" y="1152" type="qcurve"/>
      <point x="478" y="1152" type="line"/>
      <point x="478" y="1228"/>
      <point x="568" y="1313"/>
      <point x="692" y="1313"/>
      <point x="782" y="1228"/>
      <point x="782" y="1152" type="qcurve"/>
      <point x="1034" y="1152" type="line"/>
      <point x="1034" y="1235"/>
      <point x="965" y="1369"/>
      <point x="850" y="1452"/>
      <point x="707" y="1496"/>
      <point x="553" y="1496"/>
      <point x="410" y="1452"/>
      <point x="295" y="1369"/>
      <point x="226" y="1235"/>
    </contour>
  </outline>
</glyph>
<glyph name="uni0208" format="1">
  <advance width="1076"/>
  <unicode hex="0208"/>
  <outline>
    <contour>
      <point x="972" y="1623" type="line"/>
      <point x="108" y="1623" type="line"/>
      <point x="108" y="1270" type="line"/>
      <point x="251" y="1270" type="line"/>
      <point x="251" y="359" type="line"/>
      <point x="104" y="359" type="line"/>
      <point x="104" y="0" type="line"/>
      <point x="966" y="0" type="line"/>
      <point x="966" y="359" type="line"/>
      <point x="825" y="359" type="line"/>
      <point x="825" y="1270" type="line"/>
      <point x="972" y="1270" type="line"/>
    </contour>
    <contour>
      <point x="856" y="2385" type="line"/>
      <point x="1009" y="1759" type="line"/>
      <point x="844" y="1699" type="line"/>
      <point x="556" y="2266" type="line"/>
    </contour>
    <contour>
      <point x="256" y="2366" type="line"/>
      <point x="563" y="1799" type="line"/>
      <point x="419" y="1700" type="line"/>
      <point x="-4" y="2175" type="line"/>
    </contour>
  </outline>
</glyph>
<glyph name="uni020A" format="1">
  <advance width="1076"/>
  <unicode hex="020A"/>
  <outline>
    <contour>
      <point x="972" y="1623" type="line"/>
      <point x="108" y="1623" type="line"/>
      <point x="108" y="1270" type="line"/>
      <point x="251" y="1270" type="line"/>
      <point x="251" y="359" type="line"/>
      <point x="104" y="359" type="line"/>
      <point x="104" y="0" type="line"/>
      <point x="966" y="0" type="line"/>
      <point x="966" y="359" type="line"/>
      <point x="825" y="359" type="line"/>
      <point x="825" y="1270" type="line"/>
      <point x="972" y="1270" type="line"/>
    </contour>
    <contour>
      <point x="140" y="1699" type="qcurve"/>
      <point x="392" y="1699" type="line"/>
      <point x="392" y="1775"/>
      <point x="482" y="1860"/>
      <point x="606" y="1860"/>
      <point x="696" y="1775"/>
      <point x="696" y="1699" type="qcurve"/>
      <point x="948" y="1699" type="line"/>
      <point x="948" y="1782"/>
      <point x="879" y="1916"/>
      <point x="764" y="1999"/>
      <point x="621" y="2043"/>
      <point x="467" y="2043"/>
      <point x="324" y="1999"/>
      <point x="209" y="1916"/>
      <point x="140" y="1782"/>
    </contour>
  </outline>
</glyph>
<glyph name="uni020D" format="1">
  <advance width="1290"/>
  <unicode hex="020D"/>
  <outline>
    <contour>
      <point x="43" y="547" type="qcurve"/>
      <point x="43" y="807"/>
      <point x="365" y="1091"/>
      <point x="925" y="1091"/>
      <point x="1247" y="807"/>
      <point x="1247" y="547" type="qcurve"/>
      <point x="1247" y="372"/>
      <point x="1094" y="114"/>
      <point x="823" y="-18"/>
      <point x="467" y="-18"/>
      <point x="196" y="114"/>
      <point x="43" y="372"/>
    </contour>
    <contour>
      <point x="508" y="545" type="qcurve"/>
      <point x="508" y="294"/>
      <point x="782" y="294"/>
      <point x="782" y="545" type="qcurve"/>
      <point x="782" y="596"/>
      <point x="773" y="667"/>
      <point x="747" y="741"/>
      <point x="689" y="779"/>
      <point x="601" y="779"/>
      <point x="543" y="741"/>
      <point x="517" y="667"/>
      <point x="508" y="596"/>
    </contour>
    <contour>
      <point x="826" y="1843" type="line"/>
      <point x="979" y="1217" type="line"/>
      <point x="814" y="1157" type="line"/>
      <point x="526" y="1724" type="line"/>
    </contour>
    <contour>
      <point x="226" y="1824" type="line"/>
      <point x="533" y="1257" type="line"/>
      <point x="389" y="1158" type="line"/>
      <point x="-34" y="1633" type="line"/>
    </contour>
  </outline>
</glyph>
<glyph name="uni0214" format="1">
  <advance width="1683"/>
  <unicode hex="0214"/>
  <outline>
    <contour>
      <point x="1485" y="1270" type="line"/>
      <point x="1639" y="1270" type="line"/>
      <point x="1639" y="1622" type="line"/>
      <point x="985" y="1622" type="line"/>
      <point x="985" y="1270" type="line"/>
      <point x="1149" y="1270" type="line"/>
      <point x="1149" y="536" type="line"/>
      <point x="1149" y="448"/>
      <point x="1045" y="346"/>
      <point x="953" y="346" type="qcurve"/>
      <point x="901" y="346"/>
      <point x="824" y="390"/>
      <point x="783" y="465"/>
      <point x="764" y="551"/>
      <point x="764" y="600" type="qcurve"/>
      <point x="764" y="1270" type="line"/>
      <point x="912" y="1270" type="line"/>
      <point x="912" y="1622" type="line"/>
      <point x="43" y="1622" type="line"/>
      <point x="43" y="1270" type="line"/>
      <point x="204" y="1270" type="line"/>
      <point x="204" y="704" type="line"/>
      <point x="204" y="616"/>
      <point x="219" y="466"/>
      <point x="258" y="314"/>
      <point x="320" y="192"/>
      <point x="418" y="84"/>
      <point x="547" y="12"/>
      <point x="725" y="-29"/>
      <point x="834" y="-29" type="qcurve"/>
      <point x="1005" y="-29"/>
      <point x="1301" y="107"/>
      <point x="1485" y="362"/>
      <point x="1485" y="520" type="qcurve"/>
    </contour>
    <contour>
      <point x="1036" y="2385" type="line"/>
      <point x="1189" y="1759" type="line"/>
      <point x="1024" y="1699" type="line"/>
      <point x="736" y="2266" type="line"/>
    </contour>
    <contour>
      <point x="436" y="2366" type="line"/>
      <point x="743" y="1799" type="line"/>
      <point x="599" y="1700" type="line"/>
      <point x="176" y="2175" type="line"/>
    </contour>
  </outline>
</glyph>
<glyph name="uni0215" format="1">
  <advance width="1466"/>
  <unicode hex="0215"/>
  <outline>
    <contour>
      <point x="822" y="0" type="line"/>
      <point x="1392" y="0" type="line"/>
      <point x="1392" y="305" type="line"/>
      <point x="1316" y="305" type="line"/>
      <point x="1316" y="1072" type="line"/>
      <point x="741" y="1072" type="line"/>
      <point x="741" y="761" type="line"/>
      <point x="822" y="761" type="line"/>
      <point x="822" y="438" type="line"/>
      <point x="822" y="387"/>
      <point x="765" y="318"/>
      <point x="718" y="318" type="qcurve"/>
      <point x="682" y="318"/>
      <point x="628" y="385"/>
      <point x="628" y="438" type="qcurve"/>
      <point x="628" y="1072" type="line"/>
      <point x="54" y="1072" type="line"/>
      <point x="54" y="761" type="line"/>
      <point x="134" y="761" type="line"/>
      <point x="134" y="385" type="line"/>
      <point x="134" y="-18"/>
      <point x="464" y="-18" type="qcurve"/>
      <point x="582" y="-18"/>
      <point x="767" y="71"/>
      <point x="822" y="156" type="qcurve"/>
    </contour>
    <contour>
      <point x="914" y="1843" type="line"/>
      <point x="1067" y="1217" type="line"/>
      <point x="902" y="1157" type="line"/>
      <point x="614" y="1724" type="line"/>
    </contour>
    <contour>
      <point x="314" y="1824" type="line"/>
      <point x="621" y="1257" type="line"/>
      <point x="477" y="1158" type="line"/>
      <point x="54" y="1633" type="line"/>
    </contour>
  </outline>
</glyph>
<glyph name="uni0216" format="1">
  <advance width="1683"/>
  <unicode hex="0216"/>
  <outline>
    <contour>
      <point x="1485" y="1270" type="line"/>
      <point x="1639" y="1270" type="line"/>
      <point x="1639" y="1622" type="line"/>
      <point x="985" y="1622" type="line"/>
      <point x="985" y="1270" type="line"/>
      <point x="1149" y="1270" type="line"/>
      <point x="1149" y="536" type="line"/>
      <point x="1149" y="448"/>
      <point x="1045" y="346"/>
      <point x="953" y="346" type="qcurve"/>
      <point x="901" y="346"/>
      <point x="824" y="390"/>
      <point x="783" y="465"/>
      <point x="764" y="551"/>
      <point x="764" y="600" type="qcurve"/>
      <point x="764" y="1270" type="line"/>
      <point x="912" y="1270" type="line"/>
      <point x="912" y="1622" type="line"/>
      <point x="43" y="1622" type="line"/>
      <point x="43" y="1270" type="line"/>
      <point x="204" y="1270" type="line"/>
      <point x="204" y="704" type="line"/>
      <point x="204" y="616"/>
      <point x="219" y="466"/>
      <point x="258" y="314"/>
      <point x="320" y="192"/>
      <point x="418" y="84"/>
      <point x="547" y="12"/>
      <point x="725" y="-29"/>
      <point x="834" y="-29" type="qcurve"/>
      <point x="1005" y="-29"/>
      <point x="1301" y="107"/>
      <point x="1485" y="362"/>
      <point x="1485" y="520" type="qcurve"/>
    </contour>
    <contour>
      <point x="509" y="1699" type="qcurve"/>
      <point x="761" y="1699" type="line"/>
      <point x="761" y="1775"/>
      <point x="851" y="1860"/>
      <point x="975" y="1860"/>
      <point x="1065" y="1775"/>
      <point x="1065" y="1699" type="qcurve"/>
      <point x="1317" y="1699" type="line"/>
      <point x="1317" y="1782"/>
      <point x="1248" y="1916"/>
      <point x="1133" y="1999"/>
      <point x="990" y="2043"/>
      <point x="836" y="2043"/>
      <point x="693" y="1999"/>
      <point x="578" y="1916"/>
      <point x="509" y="1782"/>
    </contour>
  </outline>
</glyph>
<glyph name="caron" format="1">
  <advance width="1016"/>
  <unicode hex="02C7"/>
  <outline>
    <contour>
      <point x="366" y="1149" type="line"/>
      <point x="93" y="1526" type="line"/>
      <point x="247" y="1627" type="line"/>
      <point x="502" y="1382" type="line"/>
      <point x="757" y="1627" type="line"/>
      <point x="911" y="1526" type="line"/>
      <point x="637" y="1150" type="line"/>
    </contour>
  </outline>
</glyph>
<glyph name="dotaccent" format="1">
  <advance width="1090"/>
  <unicode hex="02D9"/>
  <outline>
    <contour>
      <point x="557" y="1145" type="qcurve"/>
      <point x="438" y="1145"/>
      <point x="280" y="1280"/>
      <point x="280" y="1395" type="qcurve"/>
      <point x="280" y="1508"/>
      <point x="435" y="1640"/>
      <point x="557" y="1640" type="qcurve"/>
      <point x="684" y="1640"/>
      <point x="844" y="1508"/>
      <point x="844" y="1395" type="qcurve"/>
      <point x="844" y="1280"/>
      <point x="679" y="1145"/>
    </contour>
  </outline>
</glyph>
<glyph name="ring" format="1">
  <advance width="1707"/>
  <unicode hex="02DA"/>
  <outline>
    <contour>
      <point x="697" y="1240" type="qcurve"/>
      <point x="622" y="1240"/>
      <point x="536" y="1328"/>
      <point x="536" y="1388" type="qcurve"/>
      <point x="536" y="1447"/>
      <point x="621" y="1533"/>
      <point x="697" y="1533" type="qcurve"/>
      <point x="775" y="1533"/>
      <point x="862" y="1447"/>
      <point x="862" y="1388" type="qcurve"/>
      <point x="862" y="1328"/>
      <point x="774" y="1240"/>
    </contour>
    <contour>
      <point x="697" y="1138" type="qcurve"/>
      <point x="828" y="1138"/>
      <point x="977" y="1288"/>
      <point x="977" y="1389" type="qcurve"/>
      <point x="977" y="1489"/>
      <point x="830" y="1633"/>
      <point x="697" y="1633" type="qcurve"/>
      <point x="568" y="1633"/>
      <point x="426" y="1488"/>
      <point x="426" y="1389" type="qcurve"/>
      <point x="426" y="1288"/>
      <point x="570" y="1138"/>
    </contour>
  </outline>
</glyph>
<glyph name="tilde" format="1">
  <advance width="1707"/>
  <unicode hex="02DC"/>
  <outline>
    <contour>
      <point x="844" y="1523" type="qcurve"/>
      <point x="888" y="1523"/>
      <point x="960" y="1485"/>
      <point x="1012" y="1416"/>
      <point x="1051" y="1348"/>
      <point x="1098" y="1258"/>
      <point x="1116" y="1232" type="qcurve"/>
      <point x="1003" y="1158" type="line"/>
      <point x="930" y="1228"/>
      <point x="875" y="1266"/>
      <point x="856" y="1266" type="qcurve"/>
      <point x="811" y="1266"/>
      <point x="687" y="1206"/>
      <point x="554" y="1145"/>
      <point x="499" y="1145" type="qcurve"/>
      <point x="454" y="1145"/>
      <point x="382" y="1182"/>
      <point x="329" y="1251"/>
      <point x="291" y="1318"/>
      <point x="243" y="1409"/>
      <point x="225" y="1435" type="qcurve"/>
      <point x="339" y="1510" type="line"/>
      <point x="415" y="1437"/>
      <point x="471" y="1398"/>
      <point x="489" y="1398" type="qcurve"/>
      <point x="525" y="1398"/>
      <point x="619" y="1437"/>
      <point x="697" y="1484"/>
      <point x="799" y="1523"/>
    </contour>
  </outline>
</glyph>
<glyph name="pi" format="1">
  <advance width="1537"/>
  <unicode hex="03C0"/>
  <outline>
    <contour>
      <point x="151" y="0" type="line"/>
      <point x="712" y="0" type="line"/>
      <point x="713" y="761" type="line"/>
      <point x="871" y="761" type="line"/>
      <point x="871" y="388" type="line"/>
      <point x="871" y="327"/>
      <point x="881" y="229"/>
      <point x="909" y="151"/>
      <point x="935" y="91"/>
      <point x="994" y="48"/>
      <point x="1034" y="18"/>
      <point x="1124" y="-2"/>
      <point x="1180" y="-12"/>
      <point x="1300" y="-17"/>
      <point x="1371" y="-18"/>
      <point x="1445" y="-18" type="qcurve"/>
      <point x="1445" y="287" type="line"/>
      <point x="1335" y="287"/>
      <point x="1295" y="418"/>
      <point x="1295" y="744" type="qcurve"/>
      <point x="1295" y="755"/>
      <point x="1295" y="761" type="qcurve"/>
      <point x="1444" y="761" type="line"/>
      <point x="1444" y="1072" type="line"/>
      <point x="498" y="1072" type="line"/>
      <point x="411" y="1072"/>
      <point x="286" y="1066"/>
      <point x="185" y="1041"/>
      <point x="121" y="1019"/>
      <point x="74" y="959"/>
      <point x="51" y="912"/>
      <point x="38" y="809"/>
      <point x="36" y="728"/>
      <point x="36" y="651" type="qcurve"/>
      <point x="94" y="651" type="line"/>
      <point x="94" y="700"/>
      <point x="194" y="761"/>
      <point x="298" y="761" type="qcurve"/>
    </contour>
  </outline>
</glyph>
<glyph name="quoteright" format="1">
  <advance width="667"/>
  <unicode hex="2019"/>
  <outline>
    <contour>
      <point x="87" y="809" type="line"/>
      <point x="361" y="809"/>
      <point x="621" y="1068"/>
      <point x="621" y="1346" type="qcurve"/>
      <point x="621" y="1468"/>
      <point x="597" y="1623" type="qcurve"/>
      <point x="87" y="1623" type="line"/>
      <point x="87" y="1257" type="line"/>
      <point x="276" y="1257" type="line"/>
      <point x="276" y="1215"/>
      <point x="274" y="1170"/>
      <point x="263" y="1110"/>
      <point x="239" y="1078"/>
      <point x="198" y="1047"/>
      <point x="132" y="1034"/>
      <point x="87" y="1034" type="qcurve"/>
    </contour>
  </outline>
</glyph>
<glyph name="quotedblright" format="1">
  <advance width="1317"/>
  <unicode hex="201D"/>
  <outline>
    <contour>
      <point x="738" y="809" type="line"/>
      <point x="1012" y="809"/>
      <point x="1272" y="1068"/>
      <point x="1272" y="1346" type="qcurve"/>
      <point x="1272" y="1468"/>
      <point x="1248" y="1623" type="qcurve"/>
      <point x="738" y="1623" type="line"/>
      <point x="738" y="1257" type="line"/>
      <point x="927" y="1257" type="line"/>
      <point x="927" y="1215"/>
      <point x="925" y="1170"/>
      <point x="914" y="1110"/>
      <point x="890" y="1078"/>
      <point x="849" y="1047"/>
      <point x="783" y="1034"/>
      <point x="738" y="1034" type="qcurve"/>
    </contour>
    <contour>
      <point x="87" y="809" type="line"/>
      <point x="361" y="809"/>
      <point x="621" y="1068"/>
      <point x="621" y="1346" type="qcurve"/>
      <point x="621" y="1468"/>
      <point x="597" y="1623" type="qcurve"/>
      <point x="87" y="1623" type="line"/>
      <point x="87" y="1257" type="line"/>
      <point x="276" y="1257" type="line"/>
      <point x="276" y="1215"/>
      <point x="274" y="1170"/>
      <point x="263" y="1110"/>
      <point x="239" y="1078"/>
      <point x="198" y="1047"/>
      <point x="132" y="1034"/>
      <point x="87" y="1034" type="qcurve"/>
    </contour>
  </outline>
</glyph>
<glyph name="bullet" format="1">
  <advance width="935"/>
  <unicode hex="2022"/>
  <outline>
    <contour>
      <point x="74" y="537" type="qcurve"/>
      <point x="74" y="550" type="line"/>
      <point x="74" y="639"/>
      <point x="140" y="783"/>
      <point x="251" y="872"/>
      <point x="388" y="919"/>
      <point x="463" y="919" type="qcurve"/>
      <point x="539" y="919"/>
      <point x="680" y="870"/>
      <point x="794" y="778"/>
      <point x="863" y="629"/>
      <point x="863" y="537" type="qcurve"/>
      <point x="863" y="442"/>
      <point x="795" y="287"/>
      <point x="681" y="192"/>
      <point x="540" y="141"/>
      <point x="464" y="141" type="qcurve"/>
      <point x="387" y="141"/>
      <point x="248" y="192"/>
      <point x="138" y="287"/>
      <point x="74" y="441"/>
    </contour>
  </outline>
</glyph>
<glyph name="uni2074" format="1">
  <advance width="812"/>
  <unicode hex="2074"/>
  <outline>
    <contour>
      <point x="615" y="532" type="line"/>
      <point x="749" y="532" type="line"/>
      <point x="749" y="683" type="line"/>
      <point x="616" y="682" type="line"/>
      <point x="616" y="1073" type="line"/>
      <point x="358" y="1074" type="line"/>
      <point x="34" y="690" type="line"/>
      <point x="34" y="532" type="line"/>
      <point x="347" y="532" type="line"/>
      <point x="347" y="455" type="line"/>
      <point x="273" y="455" type="line"/>
      <point x="273" y="286" type="line"/>
      <point x="687" y="286" type="line"/>
      <point x="687" y="455" type="line"/>
      <point x="615" y="455" type="line"/>
    </contour>
    <contour>
      <point x="236" y="684" type="line"/>
      <point x="347" y="821" type="line"/>
      <point x="347" y="683" type="line"/>
    </contour>
  </outline>
</glyph>
<glyph name="partialdiff" format="1">
  <advance width="1354"/>
  <unicode hex="2202"/>
  <outline>
    <contour>
      <point x="768" y="1345" type="line"/>
      <point x="782" y="1331"/>
      <point x="863" y="1253"/>
      <point x="912" y="1205"/>
      <point x="999" y="1115"/>
      <point x="1057" y="1050"/>
      <point x="1136" y="953"/>
      <point x="1188" y="873"/>
      <point x="1245" y="772"/>
      <point x="1279" y="682"/>
      <point x="1301" y="582"/>
      <point x="1301" y="534" type="qcurve"/>
      <point x="1301" y="370"/>
      <point x="1132" y="116"/>
      <point x="848" y="-18"/>
      <point x="674" y="-18" type="qcurve"/>
      <point x="512" y="-18"/>
      <point x="229" y="126"/>
      <point x="55" y="386"/>
      <point x="54" y="544" type="qcurve"/>
      <point x="52" y="755"/>
      <point x="311" y="1012"/>
      <point x="527" y="1023" type="qcurve"/>
      <point x="517" y="1050"/>
      <point x="372" y="1207"/>
      <point x="232" y="1344"/>
      <point x="232" y="1345" type="qcurve"/>
    </contour>
    <contour>
      <point x="785" y="550" type="qcurve"/>
      <point x="785" y="588"/>
      <point x="783" y="636"/>
      <point x="770" y="704"/>
      <point x="747" y="744"/>
      <point x="701" y="774"/>
      <point x="668" y="775" type="qcurve"/>
      <point x="638" y="775"/>
      <point x="595" y="737"/>
      <point x="576" y="691"/>
      <point x="565" y="613"/>
      <point x="564" y="576"/>
      <point x="564" y="544" type="qcurve"/>
      <point x="564" y="327"/>
      <point x="680" y="327" type="qcurve"/>
      <point x="714" y="327"/>
      <point x="759" y="376"/>
      <point x="778" y="455"/>
      <point x="785" y="517"/>
    </contour>
  </outline>
</glyph>
<glyph name="invertedbreve" format="1">
  <advance width="1707"/>
  <outline>
    <contour>
      <point x="366" y="1152" type="qcurve"/>
      <point x="618" y="1152" type="line"/>
      <point x="618" y="1228"/>
      <point x="708" y="1313"/>
      <point x="832" y="1313"/>
      <point x="922" y="1228"/>
      <point x="922" y="1152" type="qcurve"/>
      <point x="1174" y="1152" type="line"/>
      <point x="1174" y="1235"/>
      <point x="1105" y="1369"/>
      <point x="990" y="1452"/>
      <point x="847" y="1496"/>
      <point x="693" y="1496"/>
      <point x="550" y="1452"/>
      <point x="435" y="1369"/>
      <point x="366" y="1235"/>
    </contour>
  </outline>
</glyph>
